<svg width="92" height="100" viewBox="0 0 92 100" fill="none" xmlns="http://www.w3.org/2000/svg">
<path d="M38.9557 2.26255C29.3359 2.26255 23.4163 7.25834 23.4163 15.2148C23.4163 22.9857 29.3359 28.5367 36.3656 28.5367C41.9155 28.5367 47.6499 24.651 50.9799 20.9505L51.905 21.8758C50.0549 48.1498 20.0863 42.4141 20.0863 71.2787C20.0863 89.4116 31.9259 94.2225 39.1403 94.2225C46.1701 94.2225 55.6047 89.7814 59.8593 83.1204V29.2768C59.8593 12.8093 52.8296 2.26255 38.9557 2.26255ZM78.9133 27.6115V84.6006C78.9133 92.7423 84.6478 94.5923 91.4924 94.5923V96.6275C85.9431 98.2929 80.2081 99.5884 75.2136 99.5884C67.629 99.5884 61.5243 96.4429 60.2296 86.0809C53.1998 94.5923 38.2157 99.9582 27.6709 99.9582C13.4267 99.9582 0.847656 90.3369 0.847656 73.8689C0.847656 42.7839 46.3552 45.9295 49.8698 24.0961C43.0251 29.462 36.1805 34.2729 26.5612 34.2729C15.0918 34.2729 6.2124 27.2417 6.2124 17.9901C6.2124 2.07749 32.851 0.412231 43.3954 0.412231C64.299 0.412231 78.9133 7.25834 78.9133 27.6115Z" fill="white"/>
</svg>
