<svg width="45" height="51" viewBox="0 0 45 51" fill="none" xmlns="http://www.w3.org/2000/svg">
<path d="M42.5213 47.8401C42.5213 48.5817 42.7437 49.2615 43.1886 49.8797C43.6336 50.436 44.2372 50.8068 45 50.9923H42.5213C41.0594 50.9923 39.5976 50.6215 38.1355 49.8797C36.7373 49.0762 35.7523 48.0564 35.1802 46.8201C33.2098 48.2417 31.0487 49.3233 28.6971 50.0652C26.4089 50.745 24.0571 51.0539 21.6419 50.9923C18.5911 50.9923 15.7628 50.4978 13.1568 49.5089C10.5509 48.5199 8.2627 47.1911 6.29235 45.5221C4.32201 43.7915 2.76479 41.8136 1.62072 39.5885C0.540208 37.3016 0 34.891 0 32.3569C0 29.2665 0.572081 26.6086 1.71615 24.3835C2.86021 22.0966 4.35382 20.2115 6.19705 18.7281C8.04025 17.2447 10.106 16.1321 12.3941 15.3904C14.7458 14.6487 17.0975 14.2778 19.4492 14.2778C22.8178 14.2778 25.9322 14.9886 28.7924 16.4102C31.6525 17.77 33.6548 19.8097 34.7988 22.5292V11.8673C34.7988 10.0749 34.3857 8.56054 33.5593 7.32436C32.7967 6.02637 31.7479 4.9756 30.4132 4.17209C29.1421 3.30677 27.6802 2.68868 26.0277 2.31782C24.4387 1.88517 22.8178 1.66885 21.1652 1.66885C19.7669 1.66885 18.4322 1.82338 17.161 2.13241C15.8898 2.37966 14.7458 2.78143 13.7288 3.33771C12.7755 3.894 11.981 4.60479 11.3454 5.47011C10.7733 6.27361 10.4873 7.20075 10.4873 8.2515H9.62921C9.62921 6.95351 10.0424 5.77915 10.8687 4.7284C11.7585 3.67765 12.9025 2.81231 14.3009 2.13241C15.6992 1.45252 17.2881 0.927164 19.0678 0.556312C20.911 0.185461 22.7862 0 24.6928 0C26.8539 0 28.9831 0.247254 31.0806 0.741722C33.2415 1.17438 35.1483 1.8852 36.8008 2.87415C38.5169 3.86308 39.8835 5.09925 40.9004 6.58267C41.9811 8.06607 42.5213 9.82761 42.5213 11.8673V47.8401ZM34.7988 27.0723C34.7988 25.3417 34.4174 23.7964 33.6548 22.4366C32.9555 21.015 32.0022 19.8406 30.7946 18.9135C29.6504 17.9246 28.3157 17.1828 26.7903 16.6884C25.2649 16.1321 23.6759 15.854 22.0233 15.854C20.3072 15.854 18.5911 16.163 16.875 16.7811C15.2224 17.3992 13.7288 18.3881 12.3941 19.7479C11.0593 21.1077 9.97879 22.8384 9.15252 24.9398C8.32627 26.9796 7.91318 29.4518 7.91318 32.3569C7.91318 34.891 8.26274 37.2397 8.9619 39.403C9.72461 41.5665 10.7098 43.4515 11.9174 45.0587C13.1886 46.6656 14.6504 47.9327 16.303 48.8599C17.9555 49.7252 19.7351 50.1578 21.6419 50.1578C23.5488 50.1578 25.2966 49.6944 26.8855 48.7672C28.4745 47.7783 29.8411 46.4803 30.9851 44.8732C32.1929 43.2044 33.1145 41.2883 33.75 39.125C34.4492 36.9616 34.7988 34.7057 34.7988 32.3569V27.0723Z" fill="white"/>
</svg>
