<svg width="111" height="104" viewBox="0 0 111 104" fill="none" xmlns="http://www.w3.org/2000/svg">
<path d="M98.5328 70.1708C101.169 75.1086 104.861 80.7818 110.134 80.7818V81.097H82.2908V80.7818C86.7204 80.7818 89.2517 79.8363 89.2517 77.2098C89.2517 76.1592 88.8298 74.7934 87.8806 73.0074L75.2245 50.2095L69.2129 55.8827V81.097H69.1074C69.1074 82.1476 69.2129 104 50.0179 104C34.4087 104 32.7212 84.564 32.7212 76.6845V75.0036C29.2408 78.1553 20.487 81.6223 12.8934 81.6223C6.03802 81.6223 0.131836 78.6806 0.131836 71.1164C0.131836 54.0967 29.5572 44.9565 32.8267 44.011C32.8267 37.2872 31.5611 25.3104 23.4401 25.3104C13.6317 25.3104 12.7879 42.7503 12.7879 43.2756L12.4715 43.3806L3.50681 34.7657C3.50681 34.6607 6.56536 24.0497 23.862 24.0497C41.6859 24.0497 43.1625 35.3961 43.1625 48.6336V73.4277C43.1625 74.1631 43.1625 102.844 50.0179 102.844C58.0334 102.844 58.6662 87.7158 58.6662 82.6729V13.2285C58.6662 4.29847 57.6115 3.66811 52.76 3.66811H50.1233V3.24788L69.2129 0.516327V54.4119L92.2047 32.8747C94.6305 30.6684 96.0016 28.7774 96.0016 27.5166C96.0016 26.1509 94.4195 25.3104 90.6227 25.3104V24.9952H106.443V25.3104C101.169 25.3104 100.115 26.8863 91.8883 34.4506L83.6619 42.225L98.5328 70.1708ZM32.7212 48.5285C32.7212 48.4235 32.8267 47.3729 32.8267 45.6919C29.4517 46.3223 11.1004 50.2095 11.1004 65.3381C11.1004 74.058 17.2175 77.4199 23.0182 77.4199C27.1315 77.4199 31.1392 75.6339 32.7212 72.7973V48.5285Z" fill="white"/>
</svg>
