<svg width="83" height="49" viewBox="0 0 83 49" fill="none" xmlns="http://www.w3.org/2000/svg">
<path d="M67.1691 0.534551C69.0773 0.296975 70.9554 0.386067 72.8039 0.801826C74.7119 1.21758 76.4112 1.9897 77.902 3.11818C79.3927 4.24667 80.6149 5.73151 81.5689 7.57273C82.5229 9.41394 83 11.6412 83 14.2545H75.7554C75.7554 12.2352 75.5169 10.5127 75.0398 9.08727C74.5629 7.60243 73.9069 6.38486 73.0722 5.43455C72.2971 4.42484 71.3728 3.68243 70.2996 3.20727C69.2859 2.73212 68.2424 2.46486 67.1691 2.40547C65.0822 2.34606 63.0847 2.67273 61.1767 3.38545C59.3284 4.09818 57.6288 5.13759 56.0787 6.50365C54.2302 8.16667 52.6501 9.94849 51.3383 11.8491C51.0403 12.2648 50.7421 12.6806 50.4439 13.0964C50.2054 13.5121 49.9371 13.9279 49.6389 14.3436L49.5496 14.4327C49.4303 14.6703 49.311 14.8782 49.1917 15.0564C49.0725 15.2345 48.9534 15.4424 48.8341 15.68C47.4627 17.9964 46.1509 20.4316 44.8987 22.9855C43.6465 25.48 42.3944 27.9745 41.1422 30.469C39.89 32.9043 38.5485 35.2504 37.1174 37.5073C35.7462 39.7643 34.2255 41.7539 32.5561 43.4763C30.9461 45.1394 29.1275 46.4757 27.1002 47.4855C25.073 48.4951 22.8072 49 20.3028 49C17.4407 49 14.7873 48.5249 12.3427 47.5745C9.89799 46.6243 7.75142 45.3473 5.903 43.7437C4.05458 42.0806 2.59374 40.18 1.52046 38.0418C0.506808 35.8443 0 33.5278 0 31.0927C0 28.3012 0.47699 25.8661 1.43101 23.7873C2.38503 21.649 3.6372 19.8673 5.1875 18.4418C6.73778 17.0164 8.49676 15.9473 10.4644 15.2345C12.4917 14.4624 14.5488 13.9873 16.6358 13.8091C15.5625 13.6309 14.5488 13.423 13.5948 13.1855C12.7004 12.8885 11.8955 12.5321 11.18 12.1164C10.5241 11.6412 9.98742 11.077 9.57002 10.4236C9.21226 9.7109 9.03339 8.87941 9.03339 7.9291C9.03339 6.68182 9.42095 5.55333 10.1961 4.54365C11.0309 3.53394 12.1042 2.70243 13.416 2.0491C14.7277 1.39576 16.2184 0.890914 17.8879 0.534551C19.6171 0.178188 21.3761 0 23.1648 0C25.1922 0 27.1896 0.237581 29.1574 0.71273C31.1846 1.12849 32.9733 1.81152 34.5237 2.76182C36.1337 3.71214 37.4156 4.9 38.3696 6.32545C39.3832 7.75092 39.89 9.44365 39.89 11.4036V30.7363C41.3807 27.8855 42.8415 24.9751 44.2726 22.0055C45.7037 18.9764 47.2241 16.1255 48.8341 13.4527V3.92C48.8341 3.20727 48.6253 2.58365 48.208 2.0491C47.7906 1.45515 47.2241 1.06909 46.5087 0.89091H56.0787V4.54365C59.2985 1.75213 62.9954 0.415765 67.1691 0.534551ZM32.6454 11.4036C32.6454 9.68122 32.2579 8.22606 31.4828 7.0382C30.7672 5.79092 29.7835 4.78122 28.5313 4.0091C27.3388 3.17757 25.9673 2.58363 24.417 2.22727C22.9264 1.81152 21.4058 1.60364 19.8556 1.60364C18.5438 1.60364 17.2917 1.75212 16.0991 2.0491C14.9066 2.28667 13.8333 2.67273 12.8793 3.20727C11.9849 3.74182 11.2396 4.42486 10.6433 5.25637C10.1067 6.02849 9.83837 6.91941 9.83837 7.9291C9.83837 9.29516 10.2856 10.3345 11.18 11.0473C12.134 11.76 13.3265 12.2945 14.7575 12.6509C16.2482 13.0073 17.8879 13.3339 19.6767 13.6309C21.4654 13.8685 23.1947 14.2545 24.8641 14.7891C26.5934 15.3236 28.1438 16.1255 29.515 17.1945C30.9461 18.2043 31.9896 19.6594 32.6454 21.56V11.4036ZM56.0787 45.971C56.0787 46.6837 56.2873 47.3371 56.7048 47.931C57.122 48.4655 57.6885 48.8218 58.4041 49H46.5087C47.2241 48.8218 47.7906 48.4655 48.208 47.931C48.6253 47.3371 48.8341 46.6837 48.8341 45.971V17.9964C49.7881 16.1552 50.8614 14.403 52.0539 12.74C53.3061 11.077 54.6476 9.50302 56.0787 8.01818V45.971ZM32.6454 26.46C32.6454 26.0443 32.6157 25.6582 32.5561 25.3018C32.5561 24.8861 32.5262 24.4704 32.4665 24.0545C32.2282 22.6884 31.7214 21.471 30.9461 20.4018C30.2307 19.2733 29.3363 18.323 28.263 17.5509C27.1896 16.7788 25.997 16.2145 24.6854 15.8582C23.3736 15.4424 22.0319 15.2345 20.6606 15.2345C19.0507 15.2345 17.4407 15.5315 15.8308 16.1254C14.2805 16.7194 12.8793 17.6697 11.6272 18.9764C10.375 20.2236 9.36133 21.8571 8.5862 23.8763C7.81104 25.8957 7.42348 28.3012 7.42348 31.0927C7.42348 33.5278 7.7514 35.7849 8.40731 37.8637C9.12281 39.9424 10.0471 41.7539 11.18 43.2982C12.3725 44.8423 13.7439 46.06 15.2942 46.951C16.8445 47.7824 18.514 48.1982 20.3028 48.1982C22.8668 48.1982 25.1326 47.6637 27.1002 46.5945C29.1275 45.5255 30.976 44.0406 32.6454 42.14V26.46ZM39.89 45.971C39.89 46.6837 40.0988 47.3371 40.5161 47.931C40.9336 48.4655 41.5 48.8218 42.2154 49H39.89C38.4591 49 37.0578 48.5843 35.6865 47.7527C34.3151 46.9212 33.3908 45.9116 32.9137 44.7237C35.7162 41.7539 38.0417 38.5467 39.89 35.1018V45.971Z" fill="white"/>
</svg>
