<svg width="53" height="73" viewBox="0 0 53 73" fill="none" xmlns="http://www.w3.org/2000/svg">
<path d="M0 73V70.9144H0.196973C2.29788 70.9144 4.00486 70.2854 5.31792 69.0273C6.631 67.7028 7.28753 65.9813 7.28753 63.8625V9.23673C7.28753 7.05171 6.631 5.33016 5.31792 4.07213C4.00486 2.74785 2.29788 2.08572 0.196973 2.08572H0V0H29.6426C32.9253 0 35.8468 0.562812 38.4072 1.68843C41.0334 2.81405 43.2329 4.33697 45.0055 6.25715C46.7781 8.11112 48.124 10.2962 49.0432 12.8122C50.028 15.3284 50.5205 17.9769 50.5205 20.7578C50.5205 23.2076 50.1593 25.3597 49.4371 27.2135C48.7149 29.0676 47.7629 30.6568 46.5812 31.981C45.3994 33.2391 44.0207 34.199 42.4451 34.8613C40.8693 35.5233 39.228 35.8544 37.521 35.8544C35.0918 35.8544 32.6955 35.1924 30.3319 33.8681C27.9684 32.5437 25.8675 30.4913 24.0291 27.7102C24.1605 30.3587 24.9483 32.4775 26.3928 34.0667C27.9028 35.6558 29.7082 36.9801 31.8091 38.0394C33.9101 39.0327 36.1751 39.9597 38.6044 40.8204C41.0992 41.615 43.3641 42.5751 45.3994 43.7006C47.5003 44.8263 49.2401 46.2829 50.6188 48.0708C51.9975 49.8585 52.687 52.2423 52.687 55.2219C52.687 57.8703 52.0961 60.2871 50.9144 62.4721C49.7326 64.6571 48.0584 66.5442 45.8919 68.1333C43.7252 69.6563 41.0992 70.848 38.0133 71.7087C34.9934 72.5697 31.645 73 27.9684 73H0ZM27.9684 70.9144C32.1047 70.9144 35.4201 69.5569 37.9149 66.8423C40.4753 64.0613 41.7557 60.1877 41.7557 55.2219C41.7557 52.1759 41.2632 49.8253 40.2784 48.17C39.3592 46.5146 38.1775 45.2236 36.7332 44.2967C35.2887 43.3033 33.7459 42.4426 32.1047 41.7144C30.4632 40.986 28.9204 40.0258 27.4759 38.834C26.0317 37.6423 24.8171 35.987 23.8321 33.8681C22.9132 31.7493 22.4535 28.8027 22.4535 25.0285L23.8321 25.1279C24.9483 26.9818 26.2286 28.3392 27.6729 29.2C29.1173 30.0608 30.5618 30.4913 32.0061 30.4913C34.0414 30.4913 35.814 29.6635 37.3241 28.0081C38.8341 26.3528 39.5892 23.8367 39.5892 20.4599C39.5892 18.01 39.1953 15.6925 38.4072 13.5075C37.6194 11.2562 36.5035 9.30295 35.059 7.64763C33.6803 5.92608 31.9733 4.56871 29.938 3.57552C27.9684 2.58231 25.7361 2.08572 23.2413 2.08572H17.628V70.9144H27.9684Z" fill="white"/>
</svg>
