<svg width="100" height="137" viewBox="0 0 100 137" fill="none" xmlns="http://www.w3.org/2000/svg">
<path d="M0.405029 136.144V132.258H0.775007C4.72146 132.258 7.92797 131.087 10.3945 128.743C12.861 126.276 14.0943 123.068 14.0943 119.121V17.3548C14.0943 13.284 12.861 10.0769 10.3945 7.73293C7.92797 5.26592 4.72146 4.03241 0.775007 4.03241H0.405029V0.146729H56.0869C62.2531 0.146729 67.7414 1.19561 72.5513 3.29231C77.4843 5.38954 81.6158 8.22635 84.9453 11.8038C88.2753 15.2576 90.8034 19.3285 92.5299 24.0158C94.38 28.7031 95.3051 33.6372 95.3051 38.8179C95.3051 43.3821 94.6267 47.3909 93.2698 50.8448C91.9135 54.2991 90.1249 57.2595 87.9051 59.7265C85.6853 62.07 83.0957 63.859 80.1359 65.0925C77.1761 66.326 74.0928 66.9425 70.8863 66.9425C66.3231 66.9425 61.8218 65.7089 57.3822 63.2419C52.942 60.7749 48.9957 56.9508 45.5426 51.77C45.7893 56.7041 47.2691 60.6518 49.9823 63.6122C52.8189 66.5727 56.2105 69.0397 60.1568 71.0133C64.1032 72.8633 68.3578 74.5907 72.921 76.194C77.6074 77.6742 81.8625 79.4627 85.6853 81.5599C89.6316 83.6572 92.9001 86.3709 95.4897 89.7011C98.0798 93.0318 99.3745 97.4725 99.3745 103.024C99.3745 107.958 98.2649 112.46 96.045 116.531C93.8252 120.601 90.6803 124.117 86.6103 127.077C82.5404 129.915 77.6074 132.135 71.8114 133.738C66.1379 135.342 59.8487 136.144 52.942 136.144H0.405029ZM52.942 132.258C60.7117 132.258 66.9399 129.729 71.6263 124.672C76.4357 119.491 78.8406 112.275 78.8406 103.024C78.8406 97.3494 77.9161 92.9703 76.0659 89.8863C74.3394 86.8022 72.1196 84.3973 69.4064 82.6703C66.6933 80.8198 63.795 79.216 60.7117 77.8594C57.6288 76.5023 54.7306 74.7138 52.0172 72.4935C49.304 70.2732 47.0225 67.1891 45.1726 63.2419C43.446 59.2947 42.5828 53.8057 42.5828 46.7744L45.1726 46.9596C47.2691 50.4134 49.674 52.942 52.3871 54.5458C55.1003 56.1491 57.8134 56.9508 60.5265 56.9508C64.3499 56.9508 67.6799 55.409 70.5161 52.3255C73.3528 49.2415 74.7712 44.5541 74.7712 38.263C74.7712 33.6987 74.0312 29.3817 72.5513 25.3109C71.0714 21.1169 68.9747 17.4779 66.2615 14.3939C63.6715 11.1868 60.465 8.6582 56.6422 6.80768C52.942 4.95768 48.7491 4.03241 44.0627 4.03241H33.5182V132.258H52.942Z" fill="white"/>
</svg>
