<svg width="95" height="141" viewBox="0 0 95 141" fill="none" xmlns="http://www.w3.org/2000/svg">
<path d="M94.0122 99.6217C94.0122 105.913 92.7789 111.587 90.3124 116.645C87.846 121.579 84.3308 125.834 79.7681 129.412C75.3279 132.865 69.9016 135.518 63.4887 137.368C57.1989 139.218 50.2312 140.143 42.5846 140.143C39.0084 140.143 35.4933 139.958 32.0402 139.588C28.7107 139.342 25.5043 139.033 22.4209 138.663C19.4611 138.293 16.6865 138.046 14.0964 137.923C11.5063 137.676 9.16339 137.738 7.06661 138.108L0.0368652 105.728H2.99717C8.42344 116.83 14.7748 124.724 22.0512 129.412C29.3271 133.976 36.9117 136.258 44.8049 136.258C49.2446 136.258 53.3141 135.579 57.0138 134.223C60.8371 132.865 64.1051 131.015 66.8187 128.671C69.5319 126.204 71.6281 123.244 73.108 119.79C74.7115 116.213 75.513 112.327 75.513 108.133C75.513 103.075 74.4649 98.8816 72.3681 95.5513C70.2718 92.2206 67.4966 89.4453 64.0436 87.225C60.5905 84.8811 56.6441 82.9075 52.2044 81.3036C47.8878 79.7003 43.4481 78.1581 38.8848 76.6779C34.3221 75.0746 29.8204 73.3476 25.3807 71.4971C21.0641 69.6471 17.1797 67.3647 13.7261 64.651C10.273 61.8142 7.49838 58.3604 5.40161 54.2895C3.30535 50.0954 2.25722 44.9763 2.25722 38.932C2.25722 32.8877 3.30535 27.4601 5.40161 22.6493C7.62197 17.8386 10.7048 13.7679 14.6512 10.4374C18.5976 7.10685 23.346 4.57812 28.8953 2.85117C34.5687 1.12422 40.858 0.260742 47.7647 0.260742C51.0942 0.260742 54.3627 0.445773 57.5691 0.815837C60.8986 1.06254 64.0436 1.37093 67.0033 1.74099C69.9631 1.98769 72.7383 2.2344 75.3279 2.4811C78.041 2.60446 80.3844 2.48111 82.3576 2.11105L89.3874 34.4913H86.4276C83.8375 28.9404 80.9393 24.253 77.7328 20.429C74.5264 16.605 71.1348 13.5212 67.5587 11.1775C64.1051 8.71047 60.4674 6.9218 56.6441 5.81164C52.8208 4.70146 48.998 4.14637 45.1747 4.14637C36.7886 4.14637 30.067 6.36675 25.011 10.8074C19.9544 15.2482 17.4264 21.3541 17.4264 29.1254C17.4264 34.0595 18.5361 38.2535 20.7559 41.7074C22.9757 45.038 25.874 47.8751 29.4506 50.2188C33.0268 52.5626 37.0968 54.5978 41.66 56.3247C46.2228 58.0516 50.9096 59.7785 55.719 61.5054C60.5289 63.1092 65.2153 64.8977 69.7785 66.8713C74.3413 68.7218 78.4112 71.1273 81.9879 74.0877C85.5641 76.9246 88.4623 80.3789 90.6822 84.4492C92.902 88.5201 94.0122 93.5777 94.0122 99.6217Z" fill="white"/>
</svg>
