<svg width="46" height="73" viewBox="0 0 46 73" fill="none" xmlns="http://www.w3.org/2000/svg">
<path d="M43.5312 70.0454C43.5312 70.7362 43.733 71.3697 44.1369 71.9454C44.5408 72.4637 45.0601 72.8091 45.6947 72.9818H43.5312C42.7233 72.9818 41.8868 72.8378 41.0213 72.55C40.2137 72.2621 39.4636 71.8591 38.7712 71.3408C38.0789 70.8227 37.5019 70.2181 37.0404 69.5271C36.6364 68.8361 36.4347 68.1163 36.4347 67.3679C34.473 69.2104 32.2228 70.65 29.6843 71.6862C27.2034 72.6651 24.5782 73.097 21.8088 72.9818C18.174 72.9818 14.9719 72.3197 12.2026 70.9954C9.49088 69.6711 7.21192 67.9149 5.36568 65.7269C3.57712 63.5389 2.22127 61.0628 1.29814 58.2991C0.432715 55.4776 0 52.5988 0 49.6622C0 45.4013 0.634659 41.8027 1.90396 38.8661C3.23095 35.8719 4.9041 33.4536 6.92343 31.611C8.94276 29.711 11.2217 28.329 13.7603 27.4654C16.2989 26.6017 18.8087 26.1698 21.2896 26.1698C24.6935 26.1698 27.7804 26.832 30.5497 28.1562C33.3767 29.4807 35.3384 31.2656 36.4347 33.5112V2.93656C36.4922 2.24561 36.2903 1.64101 35.8288 1.1228C35.4248 0.547004 34.9056 0.172736 34.271 0H43.5312V70.0454ZM36.4347 37.0524C36.4347 35.7856 36.0596 34.6052 35.3095 33.5112C34.5594 32.3596 33.5498 31.352 32.2806 30.4883C31.069 29.6246 29.6554 28.9337 28.0399 28.4154C26.4244 27.8973 24.7513 27.6381 23.0204 27.6381C21.1165 27.6381 19.2125 28.0124 17.3086 28.7608C15.4046 29.5094 13.7026 30.7475 12.2026 32.4747C10.7025 34.2022 9.49088 36.4765 8.56775 39.298C7.64462 42.0617 7.18308 45.5164 7.18308 49.6622C7.18308 52.4837 7.50037 55.2474 8.13503 57.9537C8.76967 60.6599 9.69281 63.0782 10.9044 65.2086C12.1737 67.2815 13.7026 68.9801 15.4912 70.3044C17.3374 71.5711 19.4433 72.2045 21.8088 72.2045C24.2898 72.2045 26.4533 71.5711 28.2996 70.3044C30.1458 69.0376 31.6747 67.3679 32.8863 65.2951C34.0979 63.2222 34.9922 60.8614 35.5692 58.2127C36.1461 55.5065 36.4347 52.7715 36.4347 50.0078V37.0524Z" fill="white"/>
</svg>
