<svg width="107" height="139" viewBox="0 0 107 139" fill="none" xmlns="http://www.w3.org/2000/svg">
<path d="M73.6263 23.0905C73.6263 19.1433 72.393 15.9977 69.9265 13.6538C67.5831 11.1868 64.3767 9.95326 60.3072 9.95326H59.937V6.06757L93.05 0.146729V119.121C93.05 123.068 94.2217 126.276 96.5652 128.743C99.0316 131.087 102.238 132.258 106.184 132.258H106.555V136.144H73.6263V116.716C70.6665 123.623 66.5965 128.928 61.4169 132.628C56.3603 136.329 50.1941 138.179 42.9177 138.179C36.9981 138.179 31.4488 136.945 26.2687 134.478C21.2126 131.888 16.7729 128.372 12.9496 123.932C9.1263 119.368 6.10498 114.002 3.88514 107.834C1.78837 101.543 0.740234 94.6972 0.740234 87.2961C0.740234 79.7715 1.78837 72.9254 3.88514 66.7578C6.10498 60.5898 9.06474 55.3475 12.7645 51.0299C16.4642 46.5893 20.7808 43.197 25.7138 40.8536C30.7704 38.3866 36.1351 37.1531 41.8081 37.1531C49.2075 37.1531 55.6204 39.2498 61.0472 43.4437C66.4735 47.5145 70.6665 53.2502 73.6263 60.6518V23.0905ZM73.6263 88.406C73.6263 81.4984 73.0094 75.2688 71.7762 69.7182C70.5429 64.1672 68.7548 59.4183 66.4114 55.4706C64.0685 51.4002 61.2318 48.3162 57.9023 46.2195C54.5723 43.9992 50.8725 42.8888 46.8026 42.8888C43.5961 42.8888 40.4512 43.6289 37.3684 45.1091C34.285 46.5893 31.5103 49.1178 29.0438 52.6953C26.7004 56.1491 24.7887 60.7749 23.3089 66.5726C21.829 72.2468 21.089 79.2781 21.089 87.6659C21.089 96.0538 21.829 103.085 23.3089 108.759C24.7887 114.433 26.7004 119.059 29.0438 122.637C31.5103 126.09 34.285 128.557 37.3684 130.038C40.5748 131.518 43.8428 132.258 47.1728 132.258C55.3122 132.258 61.7251 128.372 66.4114 120.601C71.2213 112.83 73.6263 102.098 73.6263 88.406Z" fill="white"/>
</svg>
