<svg width="87" height="104" viewBox="0 0 87 104" fill="none" xmlns="http://www.w3.org/2000/svg">
<path d="M26.9456 52.4675V47.9783L31.9959 41.6654V0L0.571533 7.43524L4.92045 9.53955C11.0931 12.4856 12.3557 14.169 12.3557 18.9388V89.9243C12.3557 95.3955 9.83051 98.2013 5.4816 98.6221L2.25498 98.9027V103.252H40.9743V98.9027L37.888 98.6221C33.96 98.2013 31.9959 95.2552 31.9959 89.9243V52.187C36.4851 46.0143 41.3952 43.7697 45.7441 43.7697C52.7585 43.7697 56.9671 48.1186 56.9671 55.9747V89.9243C56.9671 95.2552 55.0031 98.2013 51.075 98.6221L47.9887 98.9027V103.252H86.8484V98.9027L83.6217 98.6221C79.2728 98.2013 76.6074 95.2552 76.6074 89.9243V53.3093C76.6074 40.1222 68.611 32.4064 55.8448 32.4064C46.0247 32.4064 37.4672 38.9999 29.8916 48.6798L26.9456 52.4675Z" fill="#9F9FAD"/>
</svg>
