<svg width="109" height="137" viewBox="0 0 109 137" fill="none" xmlns="http://www.w3.org/2000/svg">
<path d="M33.8137 88.0363C35.91 77.7979 38.5616 69.4095 41.768 62.8721C45.098 56.2107 48.6126 51.0299 52.3124 47.3294C56.0121 43.5053 59.7739 40.8536 63.5967 39.3734C67.42 37.8932 70.9967 37.1531 74.3262 37.1531C80.4924 37.1531 85.4259 39.1267 89.1256 43.0739C92.9484 46.8975 94.8601 52.0167 94.8601 58.4315V119.121C94.8601 123.068 96.0934 126.276 98.5598 128.743C101.026 131.087 104.233 132.258 108.18 132.258H108.549V136.144H61.9322V132.258H62.3019C66.2483 132.258 69.3932 131.087 71.7366 128.743C74.2031 126.276 75.4364 123.068 75.4364 119.121V63.4271C75.4364 58.493 74.5113 54.5458 72.6612 51.5854C70.9346 48.5013 68.6533 46.9596 65.8165 46.9596C62.7337 46.9596 59.3421 48.8096 55.6424 52.5101C51.9427 56.2107 48.4275 61.3299 45.098 67.8677C41.8916 74.282 39.1779 81.9302 36.9581 90.8115C34.8619 99.5697 33.8137 109.006 33.8137 119.121C33.8137 123.068 34.9849 126.276 37.3283 128.743C39.7948 131.087 43.0013 132.258 46.9476 132.258H47.3179V136.144H0.700195V132.258H1.07043C5.01681 132.258 8.22325 131.087 10.6897 128.743C13.1562 126.276 14.3895 123.068 14.3895 119.121V23.0905C14.3895 19.1433 13.1562 15.9977 10.6897 13.6538C8.22325 11.1868 5.01681 9.95326 1.07043 9.95326H0.700195V6.06757L33.8137 0.146729V88.0363Z" fill="white"/>
</svg>
