<svg width="58" height="73" viewBox="0 0 58 73" fill="none" xmlns="http://www.w3.org/2000/svg">
<path d="M17.7989 47.1768C18.9258 41.6812 20.351 37.1786 22.0746 33.6693C23.8644 30.0938 25.7538 27.3129 27.7424 25.3265C29.731 23.2739 31.7528 21.8503 33.8078 21.0558C35.8629 20.2612 37.7853 19.8639 39.575 19.8639C42.8896 19.8639 45.5411 20.9234 47.53 23.0422C49.585 25.0948 50.6124 27.8425 50.6124 31.2857V63.8625C50.6124 65.9813 51.2754 67.7031 52.601 69.0272C53.927 70.2853 55.6505 70.9143 57.7717 70.9143H57.9706V73H32.913V70.9143H33.1119C35.2331 70.9143 36.9234 70.2853 38.183 69.0272C39.5089 67.7031 40.1718 65.9813 40.1718 63.8625V33.9674C40.1718 31.3188 39.6746 29.2 38.6802 27.6108C37.7521 25.9554 36.5258 25.1279 35.0012 25.1279C33.3438 25.1279 31.5209 26.121 29.5323 28.1075C27.5434 30.0938 25.6542 32.8416 23.8644 36.3509C22.1409 39.7942 20.6825 43.8992 19.4893 48.6666C18.3623 53.3678 17.7989 58.4331 17.7989 63.8625C17.7989 65.9813 18.4286 67.7031 19.6881 69.0272C21.0139 70.2853 22.7375 70.9143 24.8587 70.9143H25.0576V73H0V70.9143H0.19887C2.32015 70.9143 4.04369 70.2853 5.36948 69.0272C6.6953 67.7031 7.35818 65.9813 7.35818 63.8625V12.3157C7.35818 10.1968 6.6953 8.50839 5.36948 7.25032C4.04369 5.92607 2.32015 5.26394 0.19887 5.26394H0V3.17822L17.7989 0V47.1768Z" fill="white"/>
</svg>
