<svg width="47" height="131" viewBox="0 0 47 131" fill="none" xmlns="http://www.w3.org/2000/svg">
<path d="M9.42034 11.6889C9.42034 8.48171 10.531 5.76793 12.7525 3.54756C15.0938 1.20384 17.8679 0.0319824 21.0749 0.0319824C24.2818 0.0319824 26.9986 1.20384 29.2148 3.54756C31.5614 5.76793 32.7294 8.48171 32.7294 11.6889C32.7294 14.8961 31.5614 17.6715 29.2148 20.0152C26.9986 22.2356 24.2818 23.3457 21.0749 23.3457C17.8679 23.3457 15.0938 22.2356 12.7525 20.0152C10.531 17.6715 9.42034 14.8961 9.42034 11.6889ZM33.4699 113.085C33.4699 117.032 34.6432 120.24 36.9845 122.707C39.451 125.051 42.6579 126.223 46.6054 126.223H46.9756V130.108H0.357422V126.223H0.727636C4.67506 126.223 7.88206 125.051 10.3485 122.707C12.815 120.24 14.0457 117.032 14.0457 113.085V55.9109C14.0457 51.9637 12.815 48.8181 10.3485 46.4747C7.88206 44.0074 4.67506 42.7739 0.727636 42.7739H0.357422V38.8882L33.4699 32.9673V113.085Z" fill="white"/>
</svg>
