<svg width="41" height="104" viewBox="0 0 41 104" fill="none" xmlns="http://www.w3.org/2000/svg">
<path d="M28.4907 85.5706C28.4907 100.826 30.4739 103.114 40.9998 103.114V103.571H0.879395V103.114C11.2527 103.114 13.3884 100.826 13.3884 85.4181V39.5008C13.3884 26.3816 11.7104 25.4663 4.69312 25.4663H0.879395V25.0087L28.4907 20.8899V85.5706Z" fill="white"/>
<path d="M15.507 5.75174C14.4012 6.86232 12.5766 7.86185 10.0332 8.75032C12.5766 9.52771 14.4012 10.5273 15.507 11.7489C16.6128 12.8595 17.6081 14.692 18.4927 17.2463C19.3774 14.692 20.3726 12.8595 21.4785 11.7489C22.5843 10.5273 24.4089 9.52771 26.9523 8.75032C24.4089 7.86185 22.5843 6.86232 21.4785 5.75174C20.3726 4.5301 19.3774 2.64208 18.4927 0.0877304C17.6081 2.64208 16.6128 4.5301 15.507 5.75174Z" fill="white"/>
</svg>
