<svg width="54" height="169" viewBox="0 0 54 169" fill="none" xmlns="http://www.w3.org/2000/svg">
<path d="M29.9609 11.7247C29.9609 8.51756 31.0716 5.80384 33.2878 3.58352C35.6344 1.23959 38.4085 0.067627 41.6154 0.067627C44.8224 0.067627 47.534 1.23959 49.7554 3.58352C52.0967 5.80384 53.27 8.51756 53.27 11.7247C53.27 14.9318 52.0967 17.7076 49.7554 20.051C47.534 22.2713 44.8224 23.3817 41.6154 23.3817C38.4085 23.3817 35.6344 22.2713 33.2878 20.051C31.0716 17.7076 29.9609 14.9318 29.9609 11.7247ZM53.8228 134.4C53.8228 139.21 53.1449 143.713 51.7891 147.907C50.5532 152.101 48.6447 155.74 46.053 158.823C43.4666 162.031 40.2597 164.498 36.4322 166.225C32.6099 168.075 28.1723 169 23.1142 169C18.7965 169 14.7917 168.198 11.0894 166.595C7.39224 164.991 3.81508 162.092 0.363037 157.898L2.76694 156.233C5.60367 159.563 8.50299 161.846 11.4596 163.079C14.4215 164.313 17.1331 164.929 19.5996 164.929C25.0279 164.929 28.8502 162.524 31.0716 157.713C33.2878 152.902 34.3985 145.933 34.3985 136.805V55.9469C34.3985 51.9997 33.1678 48.8541 30.7013 46.5102C28.2348 44.0432 25.0279 42.8097 21.0805 42.8097H20.7103V38.924L53.8228 33.0031V134.4Z" fill="white"/>
</svg>
