<svg width="13" height="72" viewBox="0 0 13 72" fill="none" xmlns="http://www.w3.org/2000/svg">
<path d="M12.1772 11.1898V61.5949C12.1772 63.22 11.8429 64.6301 11.1744 65.8252C10.5536 67.0681 9.7179 68.0957 8.66732 68.9083C7.61673 69.7688 6.42289 70.3901 5.08578 70.7726C3.74867 71.2027 2.36385 71.4178 0.931236 71.4178H0L0.931236 70.7726C2.31609 70.7726 3.55766 69.9838 4.656 68.4064C5.75434 66.8768 6.30355 64.6063 6.30355 61.5949V13.6276C6.3513 13.054 6.20797 12.5521 5.87369 12.1219C5.53941 11.6439 5.08583 11.3332 4.51277 11.1898H12.1772Z" fill="white"/>
<path d="M7.65655 2.66162C7.14029 3.18351 6.28847 3.65321 5.10107 4.07073C6.28847 4.43606 7.14029 4.90577 7.65655 5.47986C8.1728 6.00176 8.63744 6.86289 9.05045 8.06325C9.46346 6.86289 9.9281 6.00176 10.4443 5.47986C10.9606 4.90577 11.8124 4.43606 12.9998 4.07073C11.8124 3.65321 10.9606 3.18351 10.4443 2.66162C9.9281 2.08753 9.46346 1.2003 9.05045 -6.10352e-05C8.63744 1.2003 8.1728 2.08753 7.65655 2.66162Z" fill="white"/>
</svg>
