<svg width="110" height="137" viewBox="0 0 110 137" fill="none" xmlns="http://www.w3.org/2000/svg">
<path d="M33.6443 108.908L73.4173 56.1753C76.3771 51.9813 77.5488 48.7122 76.9319 46.3685C76.4386 44.0248 74.2188 42.853 70.2724 42.853H69.9022V38.9674H101.906V42.853H101.536C97.5889 42.853 93.5195 44.0248 89.3264 46.3685C85.1334 48.7122 81.4331 51.9813 78.2267 56.1753L63.2427 75.9735L88.2163 119.085C90.5597 123.033 93.581 126.24 97.2807 128.707C101.104 131.051 104.989 132.223 108.935 132.223H109.305V136.108H60.8377V132.223H61.2079C65.1543 132.223 67.6208 131.051 68.6074 128.707C69.7176 126.24 69.1007 123.033 66.7573 119.085L51.2184 91.886L33.6443 115.385V119.085C33.6443 123.033 34.816 126.24 37.1589 128.707C39.6254 131.051 42.8323 132.223 46.7787 132.223H47.1484V136.108H0.53125V132.223H0.900986C4.84737 132.223 8.05378 131.051 10.5203 128.707C12.9873 126.24 14.2205 123.033 14.2205 119.085V23.0548C14.2205 19.1075 12.9873 15.9619 10.5203 13.6182C8.05378 11.1512 4.84737 9.91764 0.900986 9.91764H0.53125V6.03206L33.6443 0.111084V108.908Z" fill="white"/>
</svg>
