<svg width="77" height="100" viewBox="0 0 77 100" fill="none" xmlns="http://www.w3.org/2000/svg">
<path d="M33.9778 46.7802C36.074 36.5418 38.7872 28.3391 42.1172 22.171C45.4472 16.0035 49.0234 11.2546 52.8467 7.92386C56.7931 4.59364 60.8015 2.43486 64.8709 1.44806C69.064 0.337636 72.9488 -0.0942279 76.5255 0.152474V19.5809C72.4555 17.3606 68.5091 16.2502 64.6858 16.2502C60.3697 16.2502 56.3613 17.6688 52.6616 20.5062C48.9618 23.2199 45.7554 27.1056 43.0423 32.1627C40.4522 37.0967 38.3559 43.0181 36.7525 49.9258C35.1495 56.8334 34.2244 64.4812 33.9778 72.8696V82.1206C33.9778 86.0684 35.1495 89.2755 37.4924 91.7425C39.9589 94.0859 43.1653 95.2579 47.1117 95.2579H47.4819V99.1436H0.864258V95.2579H1.23447C5.18085 95.2579 8.3873 94.0859 10.8538 91.7425C13.3203 89.2755 14.5535 86.0684 14.5535 82.1206V24.9468C14.5535 20.9996 13.3203 17.854 10.8538 15.5101C8.3873 13.043 5.18085 11.8096 1.23447 11.8096H0.864258V7.92386L33.9778 2.003V46.7802Z" fill="white"/>
</svg>
