<svg width="75" height="102" viewBox="0 0 75 102" fill="none" xmlns="http://www.w3.org/2000/svg">
<path d="M74.7902 72.8337C74.7902 77.0277 73.8673 80.9134 72.0171 84.4908C70.2906 87.9446 67.7626 90.9051 64.4325 93.3721C61.2261 95.8391 57.3413 97.7512 52.778 99.1083C48.2153 100.465 43.1587 101.143 37.6088 101.143C34.649 101.143 31.6277 100.958 28.5443 100.588C25.4615 100.342 22.4397 100.033 19.4799 99.6632C16.6437 99.2929 13.93 99.0462 11.3404 98.9231C8.75037 98.6764 6.40749 98.738 4.31071 99.1083L0.0561523 72.6486H3.01592C4.49581 76.7194 6.469 80.2969 8.93549 83.3804C11.5256 86.4644 14.3618 89.0545 17.4452 91.1517C20.528 93.1254 23.735 94.6671 27.0645 95.7775C30.5176 96.7643 33.9091 97.2578 37.2391 97.2578C43.0356 97.2578 47.845 95.7775 51.6683 92.8171C55.6147 89.7331 57.5879 85.8474 57.5879 81.1601C57.5879 77.0892 56.1696 73.8206 53.3334 71.3535C50.6197 68.8865 47.1666 66.7893 42.9736 65.0624C38.7805 63.3355 34.2173 61.6701 29.2843 60.0668C24.4749 58.463 19.9732 56.4893 15.7801 54.1459C11.5871 51.6789 8.07249 48.5949 5.23577 44.8944C2.52263 41.1938 1.16581 36.3213 1.16581 30.2769C1.16581 25.7126 2.02933 21.5808 3.75587 17.8797C5.48241 14.1792 7.88738 11.0339 10.9702 8.44344C14.0536 5.72966 17.6303 3.69435 21.6997 2.33743C25.8927 0.857221 30.3945 0.117065 35.2039 0.117065C37.7939 0.117065 40.5071 0.302118 43.3438 0.672171C46.18 0.918873 48.9552 1.22727 51.6683 1.59733C54.5045 1.84403 57.2177 2.09073 59.8078 2.33743C62.3978 2.46078 64.6792 2.33744 66.6524 1.96738L70.907 28.4269H68.1323C66.5293 24.356 64.4941 20.8407 62.0276 17.8797C59.5611 14.7962 56.848 12.2674 53.8882 10.2937C50.9284 8.19673 47.845 6.65482 44.6386 5.66796C41.4321 4.5578 38.4108 4.0027 35.5741 4.0027C32.984 4.0027 30.5175 4.43445 28.1746 5.29791C25.8312 6.03801 23.7349 7.14822 21.8848 8.62844C20.1583 10.1087 18.7399 11.959 17.6303 14.1792C16.5201 16.2764 15.9653 18.6198 15.9653 21.2104C15.9653 25.6511 17.3836 29.2285 20.2198 31.9422C23.1796 34.656 26.8178 36.9999 31.1344 38.9735C35.5741 40.9471 40.322 42.7971 45.3785 44.524C50.4351 46.1279 55.1214 48.163 59.438 50.63C63.8777 52.974 67.5159 55.8728 70.3521 59.3267C73.3119 62.7805 74.7902 67.2827 74.7902 72.8337Z" fill="white"/>
</svg>
