<svg width="70" height="104" viewBox="0 0 70 104" fill="none" xmlns="http://www.w3.org/2000/svg">
<path d="M69.3447 73.594C69.3447 78.248 68.4346 82.4459 66.6146 86.1872C64.7946 89.8375 62.201 92.9859 58.8338 95.6322C55.5577 98.1874 51.5536 100.149 46.8213 101.518C42.1802 102.887 37.0384 103.571 31.3962 103.571C28.7572 103.571 26.1636 103.435 23.6154 103.161C21.1583 102.978 18.7922 102.75 16.5172 102.476C14.3331 102.203 12.2855 102.02 10.3744 101.929C8.46333 101.746 6.73426 101.792 5.1872 102.066L0 78.1111H2.18409C6.18824 86.3241 10.8749 92.1646 16.2441 95.6322C21.6133 99.0087 27.21 100.697 33.0343 100.697C36.3104 100.697 39.3135 100.195 42.0437 99.1911C44.8648 98.1874 47.2763 96.8186 49.2784 95.0847C51.2806 93.2596 52.8276 91.0695 53.9196 88.5143C55.1028 85.8679 55.6942 82.9934 55.6942 79.8906C55.6942 76.1492 54.9206 73.0465 53.3736 70.5826C51.8266 68.1187 49.779 66.0654 47.2309 64.4228C44.6827 62.6889 41.7706 61.229 38.4945 60.0426C35.3095 58.8562 32.0333 57.7155 28.6661 56.6205C25.2989 55.4341 21.9774 54.1566 18.7012 52.7878C15.5161 51.4189 12.6495 49.7308 10.1014 47.7231C7.55329 45.6243 5.50571 43.069 3.95866 40.0576C2.4116 36.9548 1.63806 33.1679 1.63806 28.6963C1.63806 24.2248 2.4116 20.2096 3.95866 16.6506C5.59672 13.0916 7.87182 10.0802 10.7839 7.6163C13.696 5.15241 17.1997 3.28169 21.2948 2.0041C25.4811 0.726522 30.1223 0.0877304 35.2184 0.0877304C37.6755 0.0877304 40.0872 0.224614 42.4532 0.498382C44.9103 0.680895 47.2309 0.909034 49.4149 1.1828C51.599 1.36531 53.6466 1.54782 55.5577 1.73033C57.5598 1.82159 59.2887 1.73033 60.7449 1.45657L65.9321 25.4111H63.748C61.8369 21.3046 59.6983 17.8369 57.3323 15.008C54.9662 12.1791 52.4635 9.8977 49.8245 8.16384C47.2763 6.33874 44.5918 5.01552 41.7706 4.19423C38.9495 3.37293 36.1285 2.96228 33.3073 2.96228C27.1191 2.96228 22.1594 4.60488 18.4282 7.89007C14.6971 11.1753 12.8315 15.6924 12.8315 21.4415C12.8315 25.0918 13.6505 28.1943 15.2886 30.7496C16.9267 33.2135 19.0653 35.3123 21.7044 37.0462C24.3434 38.7801 27.3465 40.2858 30.7137 41.5633C34.0809 42.8408 37.539 44.1186 41.0881 45.3961C44.6373 46.5825 48.0953 47.9055 51.4625 49.3657C54.8297 50.7345 57.8329 52.514 60.4719 54.7041C63.1109 56.8029 65.2496 59.3581 66.8876 62.3696C68.5257 65.381 69.3447 69.1224 69.3447 73.594Z" fill="white"/>
</svg>
