<svg width="131" height="104" viewBox="0 0 131 104" fill="none" xmlns="http://www.w3.org/2000/svg">
<path d="M120.78 88.4852C120.78 100.704 122.514 102.574 130.938 102.574V102.948H98.3586V102.574C106.906 102.574 108.516 100.704 108.516 87.8618V58.3129C108.516 44.7229 102.818 39.8604 96.5005 39.8604C89.068 39.8604 80.5207 46.593 80.5207 53.9491V88.2359C80.5207 100.704 82.1311 102.574 90.5545 102.574V102.948H58.0994V102.574C66.5229 102.574 68.1333 100.704 68.1333 88.1112V18.4156C68.1333 6.32169 60.4531 2.70599 53.64 2.70599C44.2255 2.70599 37.2886 9.68802 36.5453 19.039V20.4104C36.5453 26.1457 38.8989 34.3745 49.676 44.3488L42.8629 54.3232L42.4913 54.4478C36.4214 42.4786 29.8561 37.8655 24.6534 37.8655C18.4597 37.8655 14.0002 44.3488 14.0002 52.5776C14.0002 69.0353 53.5161 62.1779 53.5161 84.4955C53.5161 97.0881 41.1287 103.571 27.3786 103.571C17.7164 103.571 7.31098 100.33 0.374023 93.4724L0.993395 92.849C7.43486 98.0855 15.2389 101.078 23.4146 101.078C32.5813 101.078 41.1287 97.2128 41.1287 86.4904C41.1287 72.1523 2.10827 74.8952 2.10827 53.201C2.10827 41.6059 13.2569 35.6213 25.5205 35.6213C31.8381 35.6213 38.4034 37.2421 43.9778 40.2344C36.9169 32.2549 35.3066 25.3976 35.3066 20.5351V18.9143C36.4214 5.32425 47.9418 0.0877304 59.7098 0.0877304C69.9914 0.0877304 80.5207 4.07746 80.5207 18.2909V48.7126C83.9892 41.1072 93.8991 35.2472 102.942 35.2472C112.233 35.2472 120.78 41.3565 120.78 58.3129V88.4852Z" fill="white"/>
</svg>
