<svg width="59" height="49" viewBox="0 0 59 49" fill="none" xmlns="http://www.w3.org/2000/svg">
<path d="M59 0C58.2205 0.181483 57.3811 0.574708 56.4817 1.17965C55.6423 1.72409 54.8628 2.41979 54.1433 3.2667C53.4238 4.05311 52.7941 4.96052 52.2545 5.98892C51.7148 6.95682 51.3253 7.95496 51.0854 8.98336L42.9909 49H35.6159L27.7913 10.8889L20.2363 49H12.8613L3.05795 3.08521C2.69819 1.39138 1.67886 0.362961 0 0H11.872C10.5529 0.302469 10.0732 1.33089 10.4329 3.08521L19.7866 46.9129L27.3415 8.80185L26.1722 3.08521C25.8124 1.39138 24.7932 0.362961 23.1144 0H34.9864C33.6672 0.302469 33.1876 1.33089 33.5474 3.08521L42.5413 46.9129L50.3659 8.4389C50.7856 6.50311 50.6358 4.71853 49.9163 3.08521C49.1968 1.45187 48.0575 0.423456 46.4984 0H59Z" fill="white"/>
</svg>
