<svg width="144" height="98" viewBox="0 0 144 98" fill="none" xmlns="http://www.w3.org/2000/svg">
<path d="M93.327 97.1436L72.6043 26.6474L51.5166 97.1436H41.8958L18.2216 17.2106C16.9858 13.1403 14.827 9.9332 11.7452 7.58927C8.66335 5.12225 5.14717 3.88874 1.20027 3.88874H0.830566V0.00305176H48.1897V3.88874H47.8195C43.8721 3.88874 40.9728 5.12225 39.1216 7.58927C37.3956 9.9332 37.1505 13.1403 38.3812 17.2106L54.661 72.7196L70.3882 19.8013L69.6477 17.2106C68.4118 13.1403 66.5658 9.9332 64.0994 7.58927C61.7528 5.12225 58.6084 3.88874 54.661 3.88874H54.2908V0.00305176H99.7983V3.88874H99.2455C95.2981 3.88874 92.3988 5.12225 90.5528 7.58927C88.8216 9.9332 88.5766 13.1403 89.8124 17.2106L106.092 72.7196L122.555 17.2106C123.785 13.1403 123.478 9.9332 121.626 7.58927C119.781 5.12225 116.881 3.88874 112.934 3.88874H112.564V0.00305176H143.83V3.88874H143.46C139.512 3.88874 135.998 5.12225 132.911 7.58927C129.954 9.9332 127.92 13.1403 126.81 17.2106L102.943 97.1436H93.327Z" fill="white"/>
</svg>
