<svg xmlns="http://www.w3.org/2000/svg" width="24" height="24" fill="none" xmlns:v="https://vecta.io/nano"><g stroke="#9f9fad"><path d="M20.953 12c0 4.945-4.008 8.953-8.953 8.953S3.047 16.945 3.047 12 7.055 3.047 12 3.047 20.953 7.055 20.953 12z" fill="#9f9fad" fill-opacity=".15" stroke-width=".094"/><g stroke-width="1.5" stroke-linejoin="round"><path d="M12 21a9 9 0 1 0 0-18 9 9 0 1 0 0 18z"/><path d="M11.25 11.25H12v5.25h.75" stroke-linecap="round"/></g></g><path d="M11.813 9c.621 0 1.125-.504 1.125-1.125s-.504-1.125-1.125-1.125-1.125.504-1.125 1.125S11.191 9 11.813 9z" fill="#9f9fad"/></svg>