<svg xmlns="http://www.w3.org/2000/svg" width="24" height="24" fill="none" stroke="#9f9fad" xmlns:v="https://vecta.io/nano"><path d="M3.75 10.828v9.375h.047m-.047-9.375l10.5 3.422h-.047-4.406-.047v.047 5.906h-.047M3.75 10.828a.74.74 0 0 1 .244-.553l-.244.553zm.047 9.375v.047h5.906v-.047m-5.906 0v-9.375h0c-.001-.098.02-.194.059-.283s.097-.169.169-.235h0l7.5-6.816h0c.128-.118.296-.183.47-.183s.342.065.47.183h0l7.509 6.815a.73.73 0 0 1 .229.519v9.375m-16.406 0h5.906m0 0V14.25v-.047h.047 4.5.047v.047 5.953m5.906 0h-5.906m5.906 0h-5.906m5.906 0h-5.906" fill="#9f9fad" fill-opacity=".15" stroke-width=".094"/><g stroke-width="1.5" stroke-linecap="round" stroke-linejoin="round"><path d="M20.25 20.25v-9.422a.78.78 0 0 0-.244-.553l-7.509-6.816a.74.74 0 0 0-1.003 0l-7.5 6.816a.74.74 0 0 0-.244.553v9.422m-2.25 0h21"/><path d="M14.25 20.25V15a.75.75 0 0 0-.75-.75h-3a.75.75 0 0 0-.75.75v5.25"/></g></svg>