<svg width="24" height="24" fill="none" xmlns="http://www.w3.org/2000/svg"><path d="M20.522 7.228a6.743 6.743 0 0 1 0 9.544M7.5 8.25v7.5M17.869 9.881a2.99 2.99 0 0 1 0 4.238M4.5 3.75l15 16.5M14.25 14.475V21L7.5 15.75H3a.75.75 0 0 1-.75-.75V9A.75.75 0 0 1 3 8.25h4.5l.637-.497M10.519 5.906 14.25 3v7.012" stroke="#9F9FAD" stroke-width="1.5" stroke-linecap="round" stroke-linejoin="round"/><path d="M7.453 15.703H3A.703.703 0 0 1 2.297 15V9A.703.703 0 0 1 3 8.297h4.453v7.406z" fill="#9F9FAD" fill-opacity=".15" stroke="#9F9FAD" stroke-width=".094"/></svg>