<svg xmlns="http://www.w3.org/2000/svg" width="24" height="24" fill="none" stroke="#9f9fad" xmlns:v="https://vecta.io/nano"><path d="M7.453 15.703H3c-.186 0-.365-.074-.497-.206s-.206-.311-.206-.497V9c0-.186.074-.365.206-.497s.311-.206.497-.206h4.453v7.406z" fill="#9f9fad" fill-opacity=".15" stroke-width=".094"/><g stroke-width="1.5" stroke-linejoin="round"><path d="M20.522 7.228c.628.626 1.125 1.37 1.465 2.189a6.74 6.74 0 0 1 0 5.166c-.34.819-.838 1.563-1.465 2.189" stroke-linecap="round"/><path d="M7.5 15.75H3a.75.75 0 0 1-.75-.75V9A.75.75 0 0 1 3 8.25h4.5L14.25 3v18L7.5 15.75z"/><path d="M7.5 8.25v7.5m10.369-5.869a2.99 2.99 0 0 1 0 4.238" stroke-linecap="round"/></g></svg>