<svg xmlns="http://www.w3.org/2000/svg" width="24" height="24" fill="none" stroke="#9f9fad" xmlns:v="https://vecta.io/nano"><path d="M20.953 11.922V19.5c0 .186-.074.365-.206.497s-.311.206-.497.206H3.75c-.186 0-.365-.074-.497-.206s-.206-.311-.206-.497v-7.578c2.724 1.564 5.812 2.383 8.953 2.375l8.953-2.375z" fill="#9f9fad" fill-opacity=".15" stroke-width=".094"/><g stroke-width="1.5" stroke-linejoin="round"><path d="M20.25 6.75H3.75A.75.75 0 0 0 3 7.5v12a.75.75 0 0 0 .75.75h16.5a.75.75 0 0 0 .75-.75v-12a.75.75 0 0 0-.75-.75z"/><g stroke-linecap="round"><path d="M15.75 6.75v-1.5a1.5 1.5 0 0 0-1.5-1.5h-4.5a1.5 1.5 0 0 0-1.5 1.5v1.5M21 11.841a17.93 17.93 0 0 1-9 2.409 17.84 17.84 0 0 1-9-2.409"/><path d="M10.875 11.25h2.25"/></g></g></svg>