<svg width="502" height="502" fill="none" xmlns="http://www.w3.org/2000/svg"><path d="M501 51H1m450 450V1m50 100H1m400 400V1m100 150H1m350 350V1m150 200H1m300 300V1m200 250H1m250 250V1m250 300H1m200 200V1m300 350H1m150 150V1m350 400H1m100 100V1m400 450H1m50 50V1m450 0H1v500h500V1z" stroke="url(#a)"/><defs><radialGradient id="a" cx="0" cy="0" r="1" gradientUnits="userSpaceOnUse" gradientTransform="rotate(90 0 251) scale(250)"><stop stop-color="#9F9FAD"/><stop offset="1" stop-color="#9F9FAD" stop-opacity="0"/></radialGradient></defs></svg>