<svg width="163" height="93" viewBox="0 0 163 93" fill="none" xmlns="http://www.w3.org/2000/svg">
<path d="M10.2547 38.2812C8.33631 38.2812 6.59231 37.8104 5.02272 36.8686C3.488 35.892 2.2672 34.6014 1.36032 32.9969C0.45344 31.3924 0 29.5961 0 27.608L0.05232 11.2841C0.05232 9.36573 0.48832 7.62174 1.36032 6.05214C2.2672 4.44766 3.488 3.17454 5.02272 2.23278C6.59231 1.25614 8.33631 0.767822 10.2547 0.767822C12.1731 0.767822 13.8997 1.2387 15.4344 2.18046C16.9691 3.12222 18.1899 4.39534 19.0968 5.99982C20.0037 7.56942 20.4571 9.33085 20.4571 11.2841V13.6909C20.4571 13.8304 20.3873 13.9001 20.2478 13.9001H14.388C14.2485 13.9001 14.1787 13.8304 14.1787 13.6909V11.2841C14.1787 10.1331 13.795 9.13901 13.0277 8.3019C12.2952 7.46478 11.3709 7.04622 10.2547 7.04622C8.99903 7.04622 8.03983 7.48222 7.37711 8.35421C6.71439 9.19133 6.38303 10.168 6.38303 11.2841V27.608C6.38303 28.8985 6.74927 29.9449 7.48175 30.7472C8.24911 31.5494 9.17343 31.9505 10.2547 31.9505C11.3709 31.9505 12.2952 31.5145 13.0277 30.6425C13.795 29.7356 14.1787 28.7241 14.1787 27.608V25.2012C14.1787 25.0617 14.2485 24.992 14.388 24.992H20.3001C20.4397 24.992 20.5094 25.0617 20.5094 25.2012V27.608C20.5094 29.5961 20.0385 31.3924 19.0968 32.9969C18.1899 34.6014 16.9691 35.892 15.4344 36.8686C13.8997 37.8104 12.1731 38.2812 10.2547 38.2812Z" fill="#9F9FAD"/>
<path d="M24.5446 37.758C24.4051 37.758 24.3353 37.6708 24.3353 37.4964L24.44 1.55262C24.44 1.4131 24.5097 1.34334 24.6492 1.34334H35.2179C37.1014 1.34334 38.8279 1.81422 40.3975 2.75598C42.002 3.66286 43.2751 4.9011 44.2169 6.4707C45.1587 8.00542 45.6295 9.74941 45.6295 11.7027C45.6295 12.9933 45.4377 14.1617 45.054 15.2081C44.6703 16.2196 44.2169 17.0916 43.6937 17.8241C43.1705 18.5217 42.6996 19.0449 42.2811 19.3937C44.1646 21.4865 45.1063 23.9456 45.1063 26.7708L45.1587 37.4964C45.1587 37.6708 45.0715 37.758 44.8971 37.758H38.9849C38.8454 37.758 38.7756 37.7057 38.7756 37.6011V26.7708C38.7756 25.5152 38.3222 24.4339 37.4153 23.527C36.5433 22.5852 35.462 22.1144 34.1715 22.1144H30.7184L30.666 37.4964C30.666 37.6708 30.5963 37.758 30.4568 37.758H24.5446ZM30.7184 15.836H35.2179C36.2991 15.836 37.2583 15.4348 38.0955 14.6326C38.9326 13.8304 39.3511 12.8537 39.3511 11.7027C39.3511 10.5865 38.9326 9.62733 38.0955 8.82509C37.2932 8.02286 36.334 7.62174 35.2179 7.62174H30.7184V15.836Z" fill="#9F9FAD"/>
<path d="M49.7849 37.758C49.6454 37.758 49.5756 37.6708 49.5756 37.4964L49.6279 1.55262C49.6279 1.4131 49.6977 1.34334 49.8372 1.34334H66.6319C66.7714 1.34334 66.8412 1.43054 66.8412 1.60494V7.46477C66.8412 7.60429 66.7714 7.67405 66.6319 7.67405H55.9063V15.836H66.6319C66.7714 15.836 66.8412 15.9057 66.8412 16.0452L66.8935 21.9574C66.8935 22.0969 66.8238 22.1667 66.6842 22.1667H55.9063V31.3227H66.6842C66.8238 31.3227 66.8935 31.4099 66.8935 31.5843V37.5488C66.8935 37.6883 66.8238 37.758 66.6842 37.758H49.7849Z" fill="#9F9FAD"/>
<path d="M69.2561 37.4964L75.7438 1.55262C75.7786 1.4131 75.8658 1.34334 76.0054 1.34334H83.5918C83.7313 1.34334 83.8185 1.4131 83.8534 1.55262L90.0794 37.4964C90.1143 37.6708 90.0445 37.758 89.8701 37.758H84.0626C83.9231 37.758 83.8359 37.6708 83.801 37.4964L83.2255 33.6771H76.11L75.5345 37.4964C75.4996 37.6708 75.4124 37.758 75.2729 37.758H69.4654C69.3258 37.758 69.2561 37.6708 69.2561 37.4964ZM77.1564 28.0788H82.1791L80.034 13.3769L79.7201 11.4411L79.5108 13.3769L77.1564 28.0788Z" fill="#9F9FAD"/>
<path d="M96.0913 37.758C95.9518 37.758 95.882 37.6708 95.882 37.4964V7.67405H89.0804C88.906 7.67405 88.8188 7.58685 88.8188 7.41246L88.8712 1.55262C88.8712 1.4131 88.9409 1.34334 89.0804 1.34334H108.962C109.136 1.34334 109.224 1.4131 109.224 1.55262V7.41246C109.224 7.58685 109.154 7.67405 109.014 7.67405H102.16L102.213 37.4964C102.213 37.6708 102.143 37.758 102.003 37.758H96.0913Z" fill="#9F9FAD"/>
<path d="M112.069 37.758C111.895 37.758 111.808 37.6708 111.808 37.4964L111.86 1.55262C111.86 1.4131 111.93 1.34334 112.069 1.34334H117.929C118.069 1.34334 118.138 1.4131 118.138 1.55262L118.191 37.4964C118.191 37.6708 118.121 37.758 117.981 37.758H112.069Z" fill="#9F9FAD"/>
<path d="M128.653 37.758C128.513 37.758 128.426 37.6708 128.391 37.4964L121.171 1.55262C121.136 1.4131 121.206 1.34334 121.38 1.34334H127.292C127.432 1.34334 127.519 1.4131 127.554 1.55262L131.844 25.5152L136.03 1.55262C136.065 1.4131 136.152 1.34334 136.291 1.34334H142.151C142.326 1.34334 142.395 1.4131 142.361 1.55262L135.245 37.4964C135.21 37.6708 135.123 37.758 134.983 37.758H128.653Z" fill="#9F9FAD"/>
<path d="M145.637 37.758C145.497 37.758 145.427 37.6708 145.427 37.4964L145.48 1.55262C145.48 1.4131 145.549 1.34334 145.689 1.34334H162.484C162.623 1.34334 162.693 1.43054 162.693 1.60494V7.46477C162.693 7.60429 162.623 7.67405 162.484 7.67405H151.758V15.836H162.484C162.623 15.836 162.693 15.9057 162.693 16.0452L162.745 21.9574C162.745 22.0969 162.676 22.1667 162.536 22.1667H151.758V31.3227H162.536C162.676 31.3227 162.745 31.4099 162.745 31.5843V37.5488C162.745 37.6883 162.676 37.758 162.536 37.758H145.637Z" fill="#9F9FAD"/>
<path d="M13.0374 91.7864C10.5984 91.7864 8.38117 91.1877 6.38565 89.9904C4.43448 88.7487 2.88241 87.108 1.72945 85.0681C0.576483 83.0283 0 80.7445 0 78.2168L0.0665172 57.4635C0.0665172 55.0245 0.620827 52.8073 1.72945 50.8117C2.88241 48.7719 4.43448 47.1533 6.38565 45.956C8.38117 44.7143 10.5984 44.0935 13.0374 44.0935C15.4763 44.0935 17.6714 44.6922 19.6226 45.8895C21.5738 47.0868 23.1258 48.7054 24.2788 50.7452C25.4318 52.7407 26.0082 54.9802 26.0082 57.4635V60.5233C26.0082 60.7006 25.9195 60.7893 25.7422 60.7893H18.2922C18.1149 60.7893 18.0262 60.7006 18.0262 60.5233V57.4635C18.0262 56.0001 17.5384 54.7363 16.5628 53.672C15.6315 52.6077 14.4564 52.0756 13.0374 52.0756C11.441 52.0756 10.2215 52.6299 9.37893 53.7385C8.53638 54.8028 8.1151 56.0444 8.1151 57.4635V78.2168C8.1151 79.8576 8.58072 81.1879 9.51196 82.2079C10.4875 83.2278 11.6627 83.7378 13.0374 83.7378C14.4564 83.7378 15.6315 83.1835 16.5628 82.0748C17.5384 80.9219 18.0262 79.6359 18.0262 78.2168V75.157C18.0262 74.9797 18.1149 74.891 18.2922 74.891H25.8087C25.9861 74.891 26.0748 74.9797 26.0748 75.157V78.2168C26.0748 80.7445 25.4761 83.0283 24.2788 85.0681C23.1258 87.108 21.5738 88.7487 19.6226 89.9904C17.6714 91.1877 15.4763 91.7864 13.0374 91.7864Z" fill="#9F9FAD"/>
<path d="M43.2445 91.7864C40.8499 91.7864 38.6548 91.1877 36.6593 89.9904C34.7081 88.7487 33.1339 87.1302 31.9366 85.1346C30.7393 83.0948 30.1406 80.8554 30.1406 78.4164L30.2071 57.3304C30.2071 54.8915 30.7836 52.6742 31.9366 50.6787C33.1339 48.6832 34.7303 47.0868 36.7258 45.8895C38.7213 44.6922 40.8942 44.0935 43.2445 44.0935C45.6391 44.0935 47.812 44.6922 49.7632 45.8895C51.7144 47.0868 53.2664 48.6832 54.4194 50.6787C55.6167 52.6742 56.2154 54.8915 56.2154 57.3304L56.2819 78.4164C56.2819 80.8554 55.6832 83.0948 54.4859 85.1346C53.333 87.1302 51.7587 88.7487 49.7632 89.9904C47.812 91.1877 45.6391 91.7864 43.2445 91.7864ZM43.2445 83.7378C44.5749 83.7378 45.7278 83.2056 46.7034 82.1414C47.7233 81.0327 48.2333 79.7911 48.2333 78.4164L48.1668 57.3304C48.1668 55.8671 47.7012 54.6254 46.7699 53.6055C45.8387 52.5855 44.6635 52.0756 43.2445 52.0756C41.8698 52.0756 40.6947 52.5855 39.7191 53.6055C38.7435 54.5811 38.2557 55.8227 38.2557 57.3304V78.4164C38.2557 79.8798 38.7435 81.1436 39.7191 82.2079C40.6947 83.2278 41.8698 83.7378 43.2445 83.7378Z" fill="#9F9FAD"/>
<path d="M61.6719 91.1212C61.4501 91.1212 61.3393 91.0103 61.3393 90.7886L61.4723 45.0913C61.4723 44.9139 61.561 44.8252 61.7384 44.8252L74.1771 44.7587C76.6161 44.7143 78.8333 45.2908 80.8288 46.4881C82.8687 47.6854 84.4873 49.304 85.6846 51.3439C86.8819 53.3394 87.4805 55.5566 87.4805 57.9956V77.0861C87.4805 79.6581 86.8597 82.0083 85.6181 84.1369C84.3764 86.2211 82.7135 87.884 80.6293 89.1257C78.5451 90.3673 76.1948 91.0103 73.5784 91.0547L61.6719 91.1212ZM69.4544 82.9396H73.5784C75.2192 82.9396 76.5939 82.3631 77.7025 81.2101C78.8555 80.0572 79.432 78.6825 79.432 77.0861V57.9291C79.432 56.5101 78.8998 55.2906 77.8355 54.2706C76.8156 53.2064 75.5961 52.6964 74.1771 52.7407L69.5209 52.8073L69.4544 82.9396Z" fill="#9F9FAD"/>
<path d="M107.279 91.1212C106.924 91.1212 106.747 90.966 106.747 90.6556L106.68 45.3573C106.68 45.0026 106.857 44.8252 107.212 44.8252H113.199L124.44 71.033L124.108 45.3573C124.108 45.0026 124.307 44.8252 124.706 44.8252H131.291C131.558 44.8252 131.691 45.0026 131.691 45.3573L131.757 90.7221C131.757 90.9881 131.646 91.1212 131.425 91.1212H125.571L114.064 66.6428L114.529 90.5891C114.529 90.9438 114.33 91.1212 113.93 91.1212H107.279Z" fill="#9F9FAD"/>
<path d="M149.708 91.7864C147.313 91.7864 145.14 91.1877 143.189 89.9904C141.238 88.7931 139.664 87.1967 138.467 85.2012C137.314 83.1613 136.737 80.8997 136.737 78.4164V57.3304C136.737 54.9358 137.314 52.7407 138.467 50.7452C139.664 48.7054 141.238 47.0868 143.189 45.8895C145.185 44.6922 147.358 44.0935 149.708 44.0935C152.147 44.0935 154.342 44.6922 156.293 45.8895C158.289 47.0424 159.863 48.6167 161.016 50.6122C162.169 52.6077 162.745 54.8471 162.745 57.3304V60.3902C162.745 60.5676 162.634 60.6563 162.413 60.6563H154.963C154.785 60.6563 154.697 60.5676 154.697 60.3902V57.8626C154.697 56.1775 154.209 54.7806 153.233 53.672C152.302 52.5634 151.127 52.0091 149.708 52.0091C148.422 52.0091 147.269 52.5412 146.249 53.6055C145.273 54.6697 144.786 55.9114 144.786 57.3304V78.4164C144.786 79.8798 145.273 81.1436 146.249 82.2079C147.225 83.2278 148.378 83.7378 149.708 83.7378C151.127 83.7378 152.302 83.2278 153.233 82.2079C154.209 81.1879 154.697 79.9241 154.697 78.4164V75.157H150.04C149.819 75.157 149.708 75.0462 149.708 74.8245V67.3745C149.708 67.1528 149.819 67.0419 150.04 67.0419H162.479C162.657 67.0419 162.745 67.1528 162.745 67.3745V78.4164C162.745 80.8997 162.147 83.1613 160.949 85.2012C159.796 87.1967 158.244 88.7931 156.293 89.9904C154.342 91.1877 152.147 91.7864 149.708 91.7864Z" fill="#9F9FAD"/>
<path d="M101 45C99.5 45.7833 92 48.1333 92 49.7C92 51.2667 101 52.8333 101 54.4C101 55.9667 92 57.5333 92 59.1C92 60.6667 101 62.2333 101 63.8C101 65.3667 92 66.9333 92 68.5C92 70.0667 101 71.6333 101 73.2C101 74.7667 92 76.3333 92 77.9C92 79.4667 101 81.0333 101 82.6C101 84.1667 92 85.7333 92 87.3C92 88.8667 101 90.4333 101 92" stroke="#B0FF92" stroke-width="0.5" stroke-linecap="round" stroke-linejoin="round"/>
</svg>
