<svg width="172" height="117" viewBox="0 0 172 117" fill="none" xmlns="http://www.w3.org/2000/svg">
<path d="M9.24584 48.8721C9.08195 48.8721 9 48.7902 9 48.6263L9.09834 14.8474C9.09834 14.7163 9.1639 14.6507 9.29501 14.6507H18.7354C21.7511 14.6507 24.1276 15.5685 25.8649 17.4042C27.6349 19.2398 28.52 21.731 28.52 24.8778C28.52 27.2051 28.0611 29.221 27.1432 30.9255C26.2254 32.6301 25.029 33.9412 23.5539 34.859C22.0789 35.7769 20.4727 36.2358 18.7354 36.2358H14.9986V48.6263C14.9986 48.7902 14.9166 48.8721 14.7527 48.8721H9.24584ZM14.9986 30.2864H18.7354C19.7843 30.2864 20.6858 29.7947 21.4397 28.8113C22.2264 27.7951 22.6197 26.484 22.6197 24.8778C22.6197 23.5994 22.2755 22.5505 21.5872 21.731C20.8988 20.9115 19.9482 20.5018 18.7354 20.5018L14.9986 20.551V30.2864Z" fill="#9F9FAD"/>
<path d="M31.6683 48.8721C31.5372 48.8721 31.4716 48.7902 31.4716 48.6263L31.57 14.8474C31.57 14.7163 31.6355 14.6507 31.7666 14.6507H41.6987C43.4688 14.6507 45.0913 15.0932 46.5664 15.9783C48.0742 16.8305 49.2707 17.9942 50.1557 19.4692C51.0407 20.9115 51.4833 22.5505 51.4833 24.3861C51.4833 25.5989 51.303 26.697 50.9424 27.6804C50.5818 28.631 50.1557 29.4505 49.664 30.1388C49.1723 30.7944 48.7298 31.2861 48.3365 31.6139C50.1065 33.5807 50.9916 35.8916 50.9916 38.5467L51.0407 48.6263C51.0407 48.7902 50.9588 48.8721 50.7949 48.8721H45.2388C45.1077 48.8721 45.0422 48.8229 45.0422 48.7246V38.5467C45.0422 37.3666 44.616 36.3505 43.7638 35.4982C42.9443 34.6132 41.9282 34.1707 40.7153 34.1707H37.4702L37.421 48.6263C37.421 48.7902 37.3555 48.8721 37.2244 48.8721H31.6683ZM37.4702 28.2704H41.6987C42.7149 28.2704 43.6163 27.8935 44.403 27.1396C45.1897 26.3856 45.583 25.4678 45.583 24.3861C45.583 23.3372 45.1897 22.4358 44.403 21.6818C43.6491 20.9279 42.7476 20.551 41.6987 20.551H37.4702V28.2704Z" fill="#9F9FAD"/>
<path d="M64.0478 49.3638C62.2777 49.3638 60.6551 48.9213 59.1801 48.0362C57.7378 47.1184 56.5741 45.922 55.6891 44.4469C54.8041 42.9391 54.3616 41.2837 54.3616 39.4809L54.4107 23.8944C54.4107 22.0916 54.8369 20.4526 55.6891 18.9776C56.5741 17.5025 57.7542 16.3225 59.2293 15.4374C60.7043 14.5524 62.3105 14.1099 64.0478 14.1099C65.8179 14.1099 67.424 14.5524 68.8663 15.4374C70.3086 16.3225 71.4559 17.5025 72.3081 18.9776C73.1932 20.4526 73.6357 22.0916 73.6357 23.8944L73.6848 39.4809C73.6848 41.2837 73.2423 42.9391 72.3573 44.4469C71.505 45.922 70.3414 47.1184 68.8663 48.0362C67.424 48.9213 65.8179 49.3638 64.0478 49.3638ZM64.0478 43.4144C65.0312 43.4144 65.8834 43.021 66.6046 42.2343C67.3585 41.4149 67.7354 40.497 67.7354 39.4809L67.6863 23.8944C67.6863 22.8127 67.3421 21.8949 66.6537 21.141C65.9654 20.3871 65.0967 20.0101 64.0478 20.0101C63.0316 20.0101 62.163 20.3871 61.4418 21.141C60.7207 21.8621 60.3601 22.7799 60.3601 23.8944V39.4809C60.3601 40.5626 60.7207 41.4968 61.4418 42.2835C62.163 43.0374 63.0316 43.4144 64.0478 43.4144Z" fill="#9F9FAD"/>
<path d="M77.669 48.8721C77.5051 48.8721 77.4232 48.7902 77.4232 48.6263L77.5215 14.8474C77.5215 14.7163 77.5871 14.6507 77.7182 14.6507L86.9128 14.6015C88.7156 14.5688 90.3546 14.9949 91.8296 15.8799C93.3375 16.765 94.5339 17.9614 95.4189 19.4692C96.304 20.9443 96.7465 22.5833 96.7465 24.3861V38.4975C96.7465 40.3987 96.2876 42.136 95.3698 43.7094C94.4519 45.25 93.2227 46.4792 91.6821 47.397C90.1415 48.3149 88.4042 48.7902 86.4702 48.8229L77.669 48.8721ZM83.4218 42.8244H86.4702C87.6831 42.8244 88.6992 42.3982 89.5187 41.546C90.3709 40.6937 90.7971 39.6776 90.7971 38.4975V24.3369C90.7971 23.288 90.4037 22.3866 89.617 21.6327C88.8631 20.846 87.9617 20.469 86.9128 20.5018L83.4709 20.551L83.4218 42.8244Z" fill="#9F9FAD"/>
<path d="M109.518 49.3638C107.781 49.3638 106.175 48.9213 104.7 48.0362C103.224 47.1184 102.044 45.9056 101.159 44.3978C100.307 42.8899 99.881 41.2346 99.881 39.4317L99.9793 14.8474C99.9793 14.7163 100.045 14.6507 100.176 14.6507H105.683C105.814 14.6507 105.88 14.7163 105.88 14.8474V39.4317C105.88 40.5462 106.224 41.4968 106.912 42.2835C107.633 43.0374 108.502 43.4144 109.518 43.4144C110.567 43.4144 111.436 43.0374 112.124 42.2835C112.845 41.4968 113.206 40.5462 113.206 39.4317V14.8474C113.206 14.7163 113.271 14.6507 113.402 14.6507H118.909C119.04 14.6507 119.106 14.7163 119.106 14.8474L119.204 39.4317C119.204 41.2674 118.762 42.9391 117.877 44.4469C117.024 45.9548 115.861 47.1512 114.386 48.0362C112.943 48.9213 111.321 49.3638 109.518 49.3638Z" fill="#9F9FAD"/>
<path d="M132.134 49.3638C130.331 49.3638 128.692 48.9213 127.217 48.0362C125.775 47.1184 124.627 45.9056 123.775 44.3978C122.923 42.8899 122.497 41.2018 122.497 39.3334L122.546 23.9928C122.546 22.1899 122.956 20.551 123.775 19.0759C124.627 17.5681 125.775 16.3716 127.217 15.4866C128.692 14.5688 130.331 14.1099 132.134 14.1099C133.937 14.1099 135.559 14.5524 137.001 15.4374C138.444 16.3225 139.591 17.5189 140.443 19.0267C141.295 20.5018 141.722 22.1571 141.722 23.9928V26.2545C141.722 26.3856 141.656 26.4512 141.525 26.4512H136.018C135.887 26.4512 135.821 26.3856 135.821 26.2545V23.9928C135.821 22.9111 135.461 21.9768 134.74 21.1902C134.051 20.4035 133.183 20.0101 132.134 20.0101C130.954 20.0101 130.052 20.4198 129.429 21.2393C128.807 22.026 128.495 22.9438 128.495 23.9928V39.3334C128.495 40.5462 128.839 41.5296 129.528 42.2835C130.249 43.0374 131.118 43.4144 132.134 43.4144C133.183 43.4144 134.051 43.0046 134.74 42.1852C135.461 41.3329 135.821 40.3823 135.821 39.3334V37.0716C135.821 36.9405 135.887 36.875 136.018 36.875H141.574C141.705 36.875 141.771 36.9405 141.771 37.0716V39.3334C141.771 41.2018 141.328 42.8899 140.443 44.3978C139.591 45.9056 138.444 47.1184 137.001 48.0362C135.559 48.9213 133.937 49.3638 132.134 49.3638Z" fill="#9F9FAD"/>
<path d="M149.659 48.8721C149.528 48.8721 149.462 48.7902 149.462 48.6263V20.6001H143.07C142.906 20.6001 142.824 20.5182 142.824 20.3543L142.874 14.8474C142.874 14.7163 142.939 14.6507 143.07 14.6507H161.754C161.918 14.6507 162 14.7163 162 14.8474V20.3543C162 20.5182 161.935 20.6001 161.804 20.6001H155.362L155.412 48.6263C155.412 48.7902 155.346 48.8721 155.215 48.8721H149.659Z" fill="#9F9FAD"/>
<path d="M9.3243 100.683C9.1081 100.683 9 100.575 9 100.359L9.12972 55.7996C9.12972 55.6266 9.2162 55.5401 9.38916 55.5401L21.518 55.4753C23.8962 55.432 26.0582 55.9941 28.004 57.1616C29.9931 58.3291 31.5713 59.9074 32.7388 61.8964C33.9063 63.8422 34.4901 66.0042 34.4901 68.3824V86.9973C34.4901 89.5052 33.8847 91.797 32.674 93.8725C31.4632 95.9048 29.8417 97.5263 27.8095 98.737C25.7772 99.9477 23.4854 100.575 20.9343 100.618L9.3243 100.683ZM16.9129 92.705H20.9343C22.5342 92.705 23.8746 92.1429 24.9556 91.0186C26.0798 89.8944 26.642 88.554 26.642 86.9973V68.3176C26.642 66.9339 26.1231 65.7448 25.0853 64.7503C24.0908 63.7125 22.9017 63.2152 21.518 63.2585L16.9778 63.3233L16.9129 92.705Z" fill="#9F9FAD"/>
<path d="M39.8527 100.683C39.6797 100.683 39.5932 100.575 39.5932 100.359L39.6581 55.7996C39.6581 55.6266 39.7446 55.5401 39.9175 55.5401H60.7376C60.9106 55.5401 60.9971 55.6482 60.9971 55.8644V63.1288C60.9971 63.3017 60.9106 63.3882 60.7376 63.3882H47.4413V73.5064H60.7376C60.9106 73.5064 60.9971 73.5929 60.9971 73.7658L61.0619 81.095C61.0619 81.268 60.9755 81.3545 60.8025 81.3545H47.4413V92.705H60.8025C60.9755 92.705 61.0619 92.8131 61.0619 93.0293V100.423C61.0619 100.596 60.9755 100.683 60.8025 100.683H39.8527Z" fill="#9F9FAD"/>
<path d="M77.4756 101.331C75.1407 101.331 73.0003 100.748 71.0545 99.5802C69.1519 98.3695 67.6169 96.7912 66.4494 94.8454C65.3252 92.8563 64.763 90.6727 64.763 88.2945V85.3109C64.763 85.0947 64.8711 84.9866 65.0873 84.9866H72.3517C72.5246 84.9866 72.6111 85.0947 72.6111 85.3109V88.2945C72.6111 89.7214 73.0868 90.9538 74.038 91.9915C74.9893 92.9861 76.1352 93.4833 77.4756 93.4833C78.8161 93.4833 79.9619 92.9644 80.9132 91.9267C81.8645 90.8889 82.3401 89.6782 82.3401 88.2945C82.3401 86.6946 81.3024 85.3109 79.2268 84.1435C78.535 83.7543 77.454 83.1489 75.9838 82.3274C74.5137 81.5058 73.13 80.7275 71.8328 79.9924C69.4546 78.6087 67.6817 76.8791 66.5143 74.8036C65.39 72.6848 64.8279 70.3066 64.8279 67.669C64.8279 65.2475 65.4116 63.0855 66.5791 61.183C67.7466 59.2372 69.2816 57.7021 71.1842 56.5779C73.13 55.4536 75.2271 54.8915 77.4756 54.8915C79.7674 54.8915 81.8645 55.4753 83.7671 56.6427C85.7129 57.767 87.2479 59.302 88.3721 61.2478C89.5396 63.1504 90.1234 65.2908 90.1234 67.669V72.9875C90.1234 73.1605 90.0369 73.2469 89.8639 73.2469H82.5996C82.4266 73.2469 82.3401 73.1605 82.3401 72.9875L82.2753 67.669C82.2753 66.1556 81.7996 64.9232 80.8484 63.9719C79.8971 63.0207 78.7728 62.545 77.4756 62.545C76.1352 62.545 74.9893 63.0639 74.038 64.1017C73.0868 65.0962 72.6111 66.2853 72.6111 67.669C72.6111 69.0959 72.9138 70.285 73.5192 71.2363C74.1245 72.1876 75.2271 73.0956 76.827 73.9604C77.0432 74.0901 77.454 74.328 78.0594 74.6739C78.708 74.9766 79.3998 75.3441 80.1349 75.7765C80.87 76.1657 81.5186 76.5116 82.0807 76.8143C82.6861 77.1169 83.0536 77.3115 83.1833 77.398C85.3453 78.6087 87.0533 80.1005 88.3073 81.8734C89.5612 83.603 90.1882 85.7433 90.1882 88.2945C90.1882 90.7592 89.6045 92.9861 88.437 94.9751C87.3128 96.9209 85.7777 98.4776 83.8319 99.645C81.9294 100.769 79.8106 101.331 77.4756 101.331Z" fill="#9F9FAD"/>
<path d="M95.0233 100.683C94.8071 100.683 94.699 100.575 94.699 100.359L94.7639 55.7996C94.7639 55.6266 94.8504 55.5401 95.0233 55.5401H102.288C102.461 55.5401 102.547 55.6266 102.547 55.7996L102.612 100.359C102.612 100.575 102.526 100.683 102.353 100.683H95.0233Z" fill="#9F9FAD"/>
<path d="M120.187 101.331C117.852 101.331 115.733 100.748 113.83 99.5802C111.928 98.4127 110.393 96.8561 109.225 94.9102C108.101 92.9212 107.539 90.716 107.539 88.2945V67.7338C107.539 65.3989 108.101 63.2585 109.225 61.3127C110.393 59.3236 111.928 57.7454 113.83 56.5779C115.776 55.4104 117.895 54.8267 120.187 54.8267C122.565 54.8267 124.705 55.4104 126.608 56.5779C128.554 57.7021 130.089 59.2372 131.213 61.183C132.337 63.1288 132.899 65.3124 132.899 67.7338V70.7174C132.899 70.8904 132.791 70.9768 132.575 70.9768H125.311C125.138 70.9768 125.051 70.8904 125.051 70.7174V68.2527C125.051 66.6096 124.575 65.2475 123.624 64.1665C122.716 63.0855 121.57 62.545 120.187 62.545C118.933 62.545 117.808 63.0639 116.814 64.1017C115.863 65.1394 115.387 66.3502 115.387 67.7338V88.2945C115.387 89.7214 115.863 90.9538 116.814 91.9915C117.765 92.9861 118.889 93.4833 120.187 93.4833C121.57 93.4833 122.716 92.9861 123.624 91.9915C124.575 90.997 125.051 89.7647 125.051 88.2945V85.1164H120.511C120.295 85.1164 120.187 85.0083 120.187 84.7921V77.5277C120.187 77.3115 120.295 77.2034 120.511 77.2034H132.64C132.813 77.2034 132.899 77.3115 132.899 77.5277V88.2945C132.899 90.716 132.315 92.9212 131.148 94.9102C130.024 96.8561 128.51 98.4127 126.608 99.5802C124.705 100.748 122.565 101.331 120.187 101.331Z" fill="#9F9FAD"/>
<path d="M138.101 100.683C137.755 100.683 137.582 100.531 137.582 100.229L137.517 56.059C137.517 55.7131 137.69 55.5401 138.036 55.5401H143.873L154.835 81.095L154.51 56.059C154.51 55.7131 154.705 55.5401 155.094 55.5401H161.515C161.775 55.5401 161.904 55.7131 161.904 56.059L161.969 100.294C161.969 100.553 161.861 100.683 161.645 100.683H155.937L144.716 76.8143L145.17 100.164C145.17 100.51 144.976 100.683 144.587 100.683H138.101Z" fill="#9F9FAD"/>
<path d="M5.33575 5.30189V3.02417H166.664V5.30189V5.55189H166.914H168.976V111.216H166.914H166.664V111.466V113.744H5.33575V111.466V111.216H5.08575H3.02393V5.55189H5.08575H5.33575V5.30189Z" stroke="#B0FF92" stroke-width="0.5"/>
<rect x="0.25" y="0.25" width="5.04839" height="5.04839" stroke="#B0FF92" stroke-width="0.5"/>
<rect x="166.701" y="0.25" width="5.04839" height="5.04839" stroke="#B0FF92" stroke-width="0.5"/>
<rect x="166.701" y="111.469" width="5.04839" height="5.04839" stroke="#B0FF92" stroke-width="0.5"/>
<rect x="0.25" y="111.469" width="5.04839" height="5.04839" stroke="#B0FF92" stroke-width="0.5"/>
</svg>
