<svg width="163" height="107" viewBox="0 0 163 107" fill="none" xmlns="http://www.w3.org/2000/svg">
<path d="M10.076 50.4745C9.88837 50.4745 9.77107 50.3572 9.72415 50.1226L0.01173 1.77169C-0.0351899 1.58401 0.0586498 1.49017 0.293249 1.49017H8.24617C8.43385 1.49017 8.55115 1.58401 8.59807 1.77169L14.3692 34.0057L19.9996 1.77169C20.0465 1.58401 20.1638 1.49017 20.3515 1.49017H28.234C28.4686 1.49017 28.5625 1.58401 28.5156 1.77169L18.9439 50.1226C18.897 50.3572 18.7797 50.4745 18.592 50.4745H10.076Z" fill="#9F9FAD"/>
<path d="M32.9929 50.4745C32.7583 50.4745 32.641 50.3572 32.641 50.1226L32.7114 1.77169C32.7114 1.58401 32.8053 1.49017 32.9929 1.49017H40.8755C41.0631 1.49017 41.157 1.58401 41.157 1.77169L41.2274 50.1226C41.2274 50.3572 41.1335 50.4745 40.9459 50.4745H32.9929Z" fill="#9F9FAD"/>
<path d="M59.3826 51.1783C56.8489 51.1783 54.5264 50.5449 52.415 49.2781C50.3505 47.9643 48.6849 46.2518 47.418 44.1404C46.1981 41.982 45.5882 39.6126 45.5882 37.032V33.7945C45.5882 33.5599 45.7055 33.4426 45.9401 33.4426H53.8226C54.0103 33.4426 54.1041 33.5599 54.1041 33.7945V37.032C54.1041 38.5804 54.6202 39.9176 55.6525 41.0436C56.6847 42.1228 57.9281 42.6624 59.3826 42.6624C60.8371 42.6624 62.0805 42.0993 63.1128 40.9733C64.145 39.8472 64.6611 38.5334 64.6611 37.032C64.6611 35.296 63.535 33.7945 61.2829 32.5277C60.5322 32.1054 59.3592 31.4485 57.7639 30.5571C56.1686 29.6656 54.6672 28.821 53.2596 28.0234C50.679 26.5219 48.7553 24.6451 47.4884 22.393C46.2685 20.0939 45.6586 17.5133 45.6586 14.6512C45.6586 12.0237 46.292 9.6777 47.5588 7.61322C48.8256 5.50183 50.4913 3.83617 52.5558 2.61625C54.6672 1.39634 56.9428 0.786377 59.3826 0.786377C61.8694 0.786377 64.145 1.4198 66.2095 2.68663C68.3209 3.90655 69.9865 5.5722 71.2064 7.6836C72.4733 9.74808 73.1067 12.0706 73.1067 14.6512V20.4224C73.1067 20.61 73.0128 20.7039 72.8252 20.7039H64.9426C64.7549 20.7039 64.6611 20.61 64.6611 20.4224L64.5907 14.6512C64.5907 13.009 64.0746 11.6718 63.0424 10.6396C62.0101 9.60732 60.7902 9.0912 59.3826 9.0912C57.9281 9.0912 56.6847 9.65424 55.6525 10.7803C54.6202 11.8595 54.1041 13.1498 54.1041 14.6512C54.1041 16.1996 54.4326 17.4899 55.0894 18.5221C55.7463 19.5543 56.9428 20.5397 58.6788 21.478C58.9134 21.6188 59.3592 21.8769 60.016 22.2522C60.7198 22.5807 61.4706 22.9795 62.2682 23.4487C63.0658 23.871 63.7696 24.2463 64.3796 24.5748C65.0365 24.9032 65.4353 25.1143 65.576 25.2082C67.922 26.5219 69.7754 28.1407 71.1361 30.0644C72.4967 31.9412 73.1771 34.2637 73.1771 37.032C73.1771 39.7064 72.5436 42.1228 71.2768 44.2811C70.0569 46.3925 68.3912 48.0816 66.2798 49.3485C64.2154 50.5684 61.9163 51.1783 59.3826 51.1783Z" fill="#9F9FAD"/>
<path d="M91.0217 51.1783C88.5349 51.1783 86.2358 50.5449 84.1244 49.2781C82.013 47.9643 80.3239 46.2283 79.0571 44.07C77.8372 41.9117 77.2272 39.5422 77.2272 36.9616L77.368 1.77169C77.368 1.58401 77.4618 1.49017 77.6495 1.49017H85.532C85.7197 1.49017 85.8135 1.58401 85.8135 1.77169V36.9616C85.8135 38.5569 86.3062 39.9176 87.2915 41.0436C88.3238 42.1228 89.5671 42.6624 91.0217 42.6624C92.5231 42.6624 93.7665 42.1228 94.7518 41.0436C95.784 39.9176 96.3001 38.5569 96.3001 36.9616V1.77169C96.3001 1.58401 96.394 1.49017 96.5817 1.49017H104.464C104.652 1.49017 104.746 1.58401 104.746 1.77169L104.886 36.9616C104.886 39.5891 104.253 41.982 102.986 44.1404C101.766 46.2987 100.101 48.0113 97.9893 49.2781C95.9248 50.5449 93.6022 51.1783 91.0217 51.1783Z" fill="#9F9FAD"/>
<path d="M139.661 50.4745C139.473 50.4745 139.379 50.3572 139.379 50.1226L139.45 1.84207C139.45 1.60747 139.567 1.49017 139.801 1.49017H147.614C147.848 1.49017 147.966 1.60747 147.966 1.84207L147.895 41.8178H162.393C162.628 41.8178 162.745 41.9351 162.745 42.1697V50.1226C162.745 50.3572 162.628 50.4745 162.393 50.4745H139.661Z" fill="#9F9FAD"/>
<path d="M0.341946 105.342C0.113982 105.342 0 105.228 0 105L0.136778 58.0166C0.136778 57.8342 0.227964 57.743 0.410335 57.743L13.1991 57.6746C15.7067 57.629 17.9864 58.2217 20.038 59.4527C22.1353 60.6837 23.7994 62.3479 25.0305 64.4451C26.2615 66.4968 26.877 68.7765 26.877 71.2841V90.9118C26.877 93.5562 26.2387 95.9726 24.9621 98.161C23.6855 100.304 21.9757 102.014 19.8329 103.29C17.69 104.567 15.2736 105.228 12.5836 105.274L0.341946 105.342ZM8.34348 96.93H12.5836C14.2705 96.93 15.6839 96.3373 16.8237 95.1519C18.0092 93.9665 18.6019 92.5531 18.6019 90.9118V71.2157C18.6019 69.7567 18.0548 68.5029 16.9605 67.4543C15.9119 66.36 14.6581 65.8357 13.1991 65.8813L8.41187 65.9497L8.34348 96.93Z" fill="#9F9FAD"/>
<path d="M72.2014 106.026C69.7394 106.026 67.4825 105.41 65.4308 104.179C63.4248 102.903 61.8062 101.239 60.5752 99.1869C59.3898 97.0896 58.7971 94.7872 58.7971 92.2796V89.1337C58.7971 88.9057 58.9111 88.7917 59.139 88.7917H66.7986C66.981 88.7917 67.0722 88.9057 67.0722 89.1337V92.2796C67.0722 93.7841 67.5737 95.0835 68.5768 96.1777C69.5798 97.2264 70.788 97.7507 72.2014 97.7507C73.6148 97.7507 74.823 97.2036 75.826 96.1094C76.829 95.0151 77.3306 93.7385 77.3306 92.2796C77.3306 90.5926 76.2363 89.1337 74.0479 87.9026C73.3184 87.4923 72.1786 86.854 70.6284 85.9877C69.0783 85.1215 67.6193 84.3008 66.2515 83.5257C63.7439 82.0668 61.8746 80.2431 60.6436 78.0546C59.4582 75.8206 58.8655 73.3129 58.8655 70.5318C58.8655 67.9786 59.481 65.6989 60.712 63.6929C61.943 61.6412 63.5615 60.0226 65.5676 58.8372C67.6193 57.6518 69.8306 57.0591 72.2014 57.0591C74.6178 57.0591 76.829 57.6746 78.8351 58.9056C80.8868 60.091 82.5054 61.7096 83.6908 63.7613C84.9218 65.7673 85.5373 68.0242 85.5373 70.5318V76.1397C85.5373 76.3221 85.4461 76.4133 85.2637 76.4133H77.6041C77.4218 76.4133 77.3306 76.3221 77.3306 76.1397L77.2622 70.5318C77.2622 68.936 76.7607 67.6366 75.7576 66.6336C74.7546 65.6306 73.5692 65.129 72.2014 65.129C70.788 65.129 69.5798 65.6762 68.5768 66.7704C67.5737 67.819 67.0722 69.0728 67.0722 70.5318C67.0722 72.0364 67.3913 73.2902 68.0296 74.2932C68.6679 75.2962 69.8306 76.2537 71.5175 77.1655C71.7455 77.3023 72.1786 77.5531 72.8169 77.9178C73.5008 78.237 74.2303 78.6245 75.0053 79.0804C75.7804 79.4908 76.4643 79.8555 77.057 80.1747C77.6953 80.4938 78.0829 80.699 78.2196 80.7902C80.4993 82.0668 82.3002 83.6397 83.6224 85.509C84.9446 87.3327 85.6057 89.5896 85.6057 92.2796C85.6057 94.8783 84.9902 97.2264 83.7592 99.3236C82.5737 101.375 80.9552 103.017 78.9035 104.248C76.8974 105.433 74.6634 106.026 72.2014 106.026Z" fill="#9F9FAD"/>
<path d="M90.7039 105.342C90.4759 105.342 90.3619 105.228 90.3619 105L90.4303 58.0166C90.4303 57.8342 90.5215 57.743 90.7039 57.743H98.3635C98.5458 57.743 98.637 57.8342 98.637 58.0166L98.7054 105C98.7054 105.228 98.6142 105.342 98.4319 105.342H90.7039Z" fill="#9F9FAD"/>
<path d="M117.236 106.026C114.774 106.026 112.54 105.41 110.534 104.179C108.528 102.948 106.909 101.307 105.678 99.2553C104.493 97.158 103.9 94.8328 103.9 92.2796V70.6002C103.9 68.1382 104.493 65.8813 105.678 63.8296C106.909 61.7324 108.528 60.0682 110.534 58.8372C112.586 57.6062 114.82 56.9907 117.236 56.9907C119.744 56.9907 122.001 57.6062 124.007 58.8372C126.058 60.0226 127.677 61.6412 128.862 63.6929C130.048 65.7445 130.64 68.047 130.64 70.6002V73.7461C130.64 73.9285 130.527 74.0196 130.299 74.0196H122.639C122.457 74.0196 122.365 73.9285 122.365 73.7461V71.1473C122.365 69.4148 121.864 67.9786 120.861 66.8388C119.903 65.699 118.695 65.129 117.236 65.129C115.914 65.129 114.729 65.6762 113.68 66.7704C112.677 67.8646 112.175 69.1412 112.175 70.6002V92.2796C112.175 93.7841 112.677 95.0835 113.68 96.1777C114.683 97.2264 115.868 97.7507 117.236 97.7507C118.695 97.7507 119.903 97.2264 120.861 96.1777C121.864 95.1291 122.365 93.8297 122.365 92.2796V88.9285H117.578C117.35 88.9285 117.236 88.8145 117.236 88.5865V80.9269C117.236 80.699 117.35 80.585 117.578 80.585H130.367C130.549 80.585 130.64 80.699 130.64 80.9269V92.2796C130.64 94.8328 130.025 97.158 128.794 99.2553C127.609 101.307 126.013 102.948 124.007 104.179C122.001 105.41 119.744 106.026 117.236 106.026Z" fill="#9F9FAD"/>
<path d="M136.125 105.342C135.76 105.342 135.578 105.182 135.578 104.863L135.509 58.2901C135.509 57.9254 135.692 57.743 136.057 57.743H142.212L153.769 84.6884L153.427 58.2901C153.427 57.9254 153.633 57.743 154.043 57.743H160.813C161.087 57.743 161.224 57.9254 161.224 58.2901L161.292 104.932C161.292 105.205 161.178 105.342 160.95 105.342H154.932L143.101 80.1747L143.579 104.795C143.579 105.16 143.374 105.342 142.964 105.342H136.125Z" fill="#9F9FAD"/>
<path d="M121 1.71387L135 50.2139L121 42.5L107 50.2139L121 1.71387Z" stroke="#B0FF92" stroke-width="0.5"/>
<rect x="31.25" y="60.9639" width="22.5" height="8.5" stroke="#B0FF92" stroke-width="0.5"/>
<rect x="31.25" y="77.9639" width="22.5" height="7.5" stroke="#B0FF92" stroke-width="0.5"/>
<rect x="31.25" y="93.9639" width="22.5" height="8.5" stroke="#B0FF92" stroke-width="0.5"/>
</svg>
