<svg width="25" height="25" fill="none" xmlns="http://www.w3.org/2000/svg"><path d="M9.673 15.298a1.125 1.125 0 1 0 0-2.25 1.125 1.125 0 0 0 0 2.25zM15.673 15.298a1.125 1.125 0 1 0 0-2.25 1.125 1.125 0 0 0 0 2.25z" fill="#9F9FAD"/><path d="M7.648 8.173a16.397 16.397 0 0 1 5.025-.75c1.704-.013 3.4.24 5.025.75M17.698 17.173a16.4 16.4 0 0 1-5.025.75c-1.704.013-3.4-.24-5.025-.75" stroke="#9F9FAD" stroke-width="1" stroke-linecap="round" stroke-linejoin="round"/><path d="m15.204 17.745 1.134 2.25a.73.73 0 0 0 .844.394c2.297-.563 4.285-1.538 5.728-2.794a.76.76 0 0 0 .225-.787L19.957 6.195a.722.722 0 0 0-.44-.478 16.537 16.537 0 0 0-2.776-.862.76.76 0 0 0-.88.496l-.741 2.241M10.142 17.745l-1.135 2.25a.73.73 0 0 1-.844.394c-2.297-.563-4.284-1.538-5.728-2.794a.759.759 0 0 1-.225-.787L5.388 6.195a.722.722 0 0 1 .441-.478 16.537 16.537 0 0 1 2.775-.862.76.76 0 0 1 .881.496l.74 2.241" stroke="#9F9FAD" stroke-width="1" stroke-linecap="round" stroke-linejoin="round"/><path d="M9.673 15.298a1.125 1.125 0 1 0 0-2.25 1.125 1.125 0 0 0 0 2.25zM15.673 15.298a1.125 1.125 0 1 0 0-2.25 1.125 1.125 0 0 0 0 2.25z" fill="#9F9FAD"/><path d="M7.648 8.173a16.397 16.397 0 0 1 5.025-.75c1.704-.013 3.4.24 5.025.75M17.698 17.173a16.4 16.4 0 0 1-5.025.75c-1.704.013-3.4-.24-5.025-.75" stroke="#9F9FAD" stroke-width="1" stroke-linecap="round" stroke-linejoin="round"/><path d="m15.204 17.745 1.134 2.25a.73.73 0 0 0 .844.394c2.297-.563 4.285-1.538 5.728-2.794a.76.76 0 0 0 .225-.787L19.957 6.195a.722.722 0 0 0-.44-.478 16.537 16.537 0 0 0-2.776-.862.76.76 0 0 0-.88.496l-.741 2.241M10.142 17.745l-1.135 2.25a.73.73 0 0 1-.844.394c-2.297-.563-4.284-1.538-5.728-2.794a.759.759 0 0 1-.225-.787L5.388 6.195a.722.722 0 0 1 .441-.478 16.537 16.537 0 0 1 2.775-.862.76.76 0 0 1 .881.496l.74 2.241" stroke="#9F9FAD" stroke-width="1" stroke-linecap="round" stroke-linejoin="round"/></svg>