<svg width="25" height="25" fill="none" xmlns="http://www.w3.org/2000/svg"><path d="M12.673 16.423a3.75 3.75 0 1 0 0-7.5 3.75 3.75 0 0 0 0 7.5z" stroke="#9F9FAD" stroke-width="1" stroke-miterlimit="10"/><path d="M16.797 4.048h-8.25a4.5 4.5 0 0 0-4.5 4.5v8.25a4.5 4.5 0 0 0 4.5 4.5h8.25a4.5 4.5 0 0 0 4.5-4.5v-8.25a4.5 4.5 0 0 0-4.5-4.5z" stroke="#9F9FAD" stroke-width="1" stroke-linecap="round" stroke-linejoin="round"/><path d="M17.548 8.923a1.125 1.125 0 1 0 0-2.25 1.125 1.125 0 0 0 0 2.25z" fill="#9F9FAD"/></svg>