<svg width="25" height="25" fill="none" xmlns="http://www.w3.org/2000/svg"><path d="M20.548 4.048H4.798a.75.75 0 0 0-.75.75v15.75c0 .415.336.75.75.75h15.75a.75.75 0 0 0 .75-.75V4.798a.75.75 0 0 0-.75-.75zM11.923 11.173v6M8.923 11.173v6" stroke="#9F9FAD" stroke-width="1" stroke-linecap="round" stroke-linejoin="round"/><path d="M11.923 13.798a2.625 2.625 0 1 1 5.25 0v3.375" stroke="#9F9FAD" stroke-width="1" stroke-linecap="round" stroke-linejoin="round"/><path d="M8.923 9.298a1.125 1.125 0 1 0 0-2.25 1.125 1.125 0 0 0 0 2.25z" fill="#9F9FAD"/></svg>