<svg width="36" height="36" fill="none" xmlns="http://www.w3.org/2000/svg"><g clip-path="url(#a)"><g clip-path="url(#b)"><path d="M6.375 1.125h23.25c3.318 0 6 2.682 6 6v22.35c0 3.318-2.682 6-6 6H6.375c-3.318 0-6-2.682-6-6V7.125c0-3.318 2.682-6 6-6z" stroke="#9F9FAD" stroke-width=".75"/><path d="M17.4 21.75h-5.58l-1.14 3.525a.263.263 0 0 1-.285.21h-2.82c-.165 0-.21-.09-.165-.27l4.83-13.905c.045-.15.09-.315.15-.495.06-.315.09-.645.09-.975-.015-.075.045-.15.12-.165h3.885c.12 0 .18.045.195.12l5.475 15.45c.045.165 0 .24-.15.24H18.87c-.105.015-.21-.06-.24-.165l-1.23-3.57zm-4.71-3.045h3.81c-.09-.315-.21-.69-.345-1.08-.135-.405-.27-.84-.405-1.29-.15-.465-.285-.915-.435-1.38-.15-.465-.285-.9-.405-1.335-.12-.42-.225-.81-.33-1.17h-.03c-.135.645-.3 1.29-.51 1.935-.225.72-.45 1.47-.69 2.22a29.44 29.44 0 0 1-.66 2.1zM25.5 12.3a1.856 1.856 0 0 1-1.335-.525 1.949 1.949 0 0 1-.51-1.38c-.015-.51.18-.99.54-1.335.36-.345.84-.525 1.335-.525.585 0 1.035.18 1.365.525.33.36.51.84.495 1.335a1.898 1.898 0 0 1-.525 1.38c-.345.36-.855.555-1.365.525zm-1.68 13.02V13.77c0-.15.06-.21.195-.21h2.97c.135 0 .195.075.195.21v11.55c0 .165-.06.24-.195.24h-2.94c-.15 0-.225-.09-.225-.24z" fill="#9F9FAD"/></g></g><defs><clipPath id="a"><path fill="#fff" d="M0 0h36v36H0z"/></clipPath><clipPath id="b"><path fill="#fff" transform="translate(0 .75)" d="M0 0h36v35.1H0z"/></clipPath></defs></svg>