<svg width="36" height="36" fill="none" xmlns="http://www.w3.org/2000/svg"><path d="M18.642 19.213c.066-1.172.639-2.209 1.507-2.94.85-.72 1.992-1.16 3.245-1.16 1.247 0 2.388.44 3.238 1.16.869.731 1.44 1.768 1.508 2.94.065 1.203-.42 2.326-1.266 3.158-.868.843-2.097 1.377-3.48 1.377-1.384 0-2.618-.53-3.48-1.377-.85-.832-1.334-1.948-1.266-3.152l-.006-.006z" fill="#9F9FAD"/><path d="M11.197 21.694c.008.459.155 1.352.374 2.047a10.788 10.788 0 0 0 2.333 4.039 12.105 12.105 0 0 0 4.082 2.934 13.191 13.191 0 0 0 5.36 1.117 13.086 13.086 0 0 0 5.36-1.135c1.588-.714 2.965-1.706 4.082-2.947a10.814 10.814 0 0 0 2.333-4.051c.232-.745.38-1.502.438-2.258a10.406 10.406 0 0 0-1.562-6.315 11.216 11.216 0 0 0-2.716-2.991l.002-.002-10.98-8.437c-.01-.007-.018-.015-.03-.022-.719-.554-1.935-.552-2.723.003-.8.56-.893 1.489-.18 2.072l-.003.003 4.585 3.728-13.958.015h-.019c-1.154.002-2.264.757-2.481 1.719-.226.974.558 1.786 1.761 1.786l-.001.005 7.072-.014L1.67 22.668l-.048.036C.43 23.616.046 25.136.797 26.09c.763.974 2.382.98 3.585.006l6.887-5.646s-.1.763-.093 1.216l.021.027zm17.743 2.55c-1.42 1.445-3.412 2.27-5.559 2.27-2.152.004-4.144-.806-5.564-2.252a6.664 6.664 0 0 1-1.52-2.376 6.177 6.177 0 0 1-.349-2.655 6.23 6.23 0 0 1 .763-2.5 6.99 6.99 0 0 1 1.688-2.01c1.383-1.123 3.139-1.737 4.975-1.737 1.843-.003 3.598.601 4.982 1.725a6.938 6.938 0 0 1 1.687 2.003 6.19 6.19 0 0 1 .763 2.5 6.195 6.195 0 0 1-.35 2.656 6.616 6.616 0 0 1-1.52 2.382l.004-.006z" fill="#9F9FAD"/></svg>