<svg width="36" height="36" viewBox="0 0 36 36" fill="none" xmlns="http://www.w3.org/2000/svg">
<g clip-path="url(#clip0_331_36)">
<path d="M35.5 18C35.5 27.665 27.665 35.5 18 35.5C8.33502 35.5 0.5 27.665 0.5 18C0.5 8.33502 8.33502 0.5 18 0.5C27.665 0.5 35.5 8.33502 35.5 18Z" stroke="#9F9FAD"/>
<path d="M18.4192 18.3035C18.9456 17.841 19.373 17.4054 19.9366 17.168C20.2669 17.0297 20.6323 16.8336 20.9461 17.1371C21.2599 17.4405 21.0617 17.7729 20.9667 18.0991C20.7768 18.7535 20.5848 19.41 20.4114 20.0686C20.3598 20.2606 20.2731 20.4815 20.4692 20.6528C20.6653 20.8242 20.911 20.7106 21.105 20.6115C21.8235 20.2441 22.4077 19.8085 22.3169 18.8423C22.2632 18.2642 22.3169 17.649 22.8516 17.2361C23.058 17.0731 23.3078 16.8831 23.57 17.0648C23.8322 17.2465 23.6443 17.4777 23.57 17.6841C23.3164 18.4627 23.2457 19.2892 23.3636 20.0995C23.3904 20.2812 23.3636 20.5434 23.5308 20.6095C23.7599 20.6962 23.8632 20.403 24.0097 20.2833C24.1563 20.1635 24.2554 19.9943 24.3834 19.8539C24.722 19.4843 24.9078 19.1891 24.4577 18.6833C23.9354 18.0991 24.0923 16.9554 24.6064 16.4124C24.7475 16.2426 24.9384 16.1214 25.1521 16.0659C25.3658 16.0103 25.5916 16.0232 25.7975 16.1028C26.2455 16.2659 26.3921 16.6519 26.4045 17.104C26.4169 17.6119 26.1981 18.0578 26.0267 18.5491C26.5263 18.6751 26.836 18.3943 27.1167 18.0908C27.7939 17.3559 28.5784 16.8893 29.6189 16.9987C30.3724 17.0772 30.8039 17.4839 30.7646 18.0764C30.7498 18.2076 30.7037 18.3333 30.6303 18.4431C30.5568 18.5528 30.4581 18.6433 30.3424 18.707C30.2267 18.7707 30.0975 18.8057 29.9655 18.8092C29.8335 18.8126 29.7026 18.7843 29.5838 18.7267C29.3484 18.6008 29.3773 18.4851 29.5838 18.3654C29.6629 18.3311 29.7265 18.2685 29.762 18.1899C29.7975 18.1112 29.8024 18.0222 29.7758 17.9401C29.7432 17.8419 29.682 17.7558 29.5999 17.6928C29.5178 17.6299 29.4187 17.593 29.3154 17.5871C29.0311 17.5448 28.7413 17.6096 28.502 17.7688C27.7464 18.2519 27.3232 19.5938 27.6762 20.4113C27.8826 20.9026 28.2666 20.9955 28.6651 20.6466C28.8849 20.436 29.0506 20.1753 29.1482 19.8869C29.2064 19.7072 29.2891 19.5363 29.3938 19.3791C29.5817 19.1293 29.8418 18.9084 30.168 19.0425C30.4942 19.1767 30.327 19.5153 30.2733 19.7445C30.0813 20.5393 29.9182 21.3134 30.5912 21.9823C30.609 21.9986 30.6232 22.0184 30.6329 22.0404C30.6426 22.0624 30.6476 22.0862 30.6476 22.1103C30.6476 22.1344 30.6426 22.1582 30.6329 22.1803C30.6232 22.2023 30.609 22.2221 30.5912 22.2383C30.5505 22.2782 30.4982 22.3042 30.4417 22.3123C30.3853 22.3205 30.3278 22.3105 30.2774 22.2837C30.044 22.2019 29.829 22.0747 29.6448 21.9097C29.4606 21.7446 29.3108 21.5448 29.2039 21.3217C29.1358 21.1731 29.1069 20.9563 28.8653 21.1689C28.6569 21.3825 28.3785 21.5137 28.0811 21.5383C27.7838 21.563 27.4875 21.4794 27.2468 21.3031C26.6605 20.9274 26.4499 20.3638 26.5036 19.6887C26.5139 19.5566 26.5304 19.4286 26.5469 19.2758C25.8719 19.3316 25.3227 19.4823 24.9367 20.1016C24.6018 20.6134 24.1459 21.0346 23.6092 21.3279C22.9052 21.7408 22.6307 21.6128 22.4407 20.8386C22.4139 20.7313 22.3912 20.6322 22.3499 20.4257C21.8926 20.8352 21.369 21.164 20.8016 21.3981C19.7342 21.778 19.1149 21.2887 19.2718 20.1594C19.3686 19.5794 19.5285 19.0118 19.7487 18.4666C19.7982 18.3324 19.918 18.1672 19.7487 18.0537C19.6248 17.9752 19.4948 18.1073 19.3977 18.1899C18.7392 18.7494 18.1591 19.3687 17.9691 20.2544C17.925 20.5155 17.8502 20.7705 17.7462 21.0141C17.6835 21.1769 17.5682 21.3142 17.4185 21.4039C17.2689 21.4937 17.0936 21.5309 16.9204 21.5096C16.5488 21.4435 16.7883 21.0636 16.685 20.8304C16.2887 21.0368 15.9088 21.2433 15.5166 21.4229C15.2337 21.5529 14.8642 21.6561 14.6577 21.4125C14.313 20.9996 14.0797 21.1421 13.7163 21.3733C13.1858 21.7119 12.5768 21.5674 12.0957 21.0079C11.8521 20.7251 11.7262 20.7437 11.4909 20.9955C11.0143 21.4872 10.4481 21.8831 9.82278 22.1619C7.36814 23.3284 4.95479 22.0195 4.81853 19.3151C4.65751 16.2617 5.95605 13.8319 8.50772 12.1369C8.83738 11.908 9.2137 11.755 9.60958 11.6889C10.0055 11.6229 10.4111 11.6455 10.7972 11.755C11.2502 11.8734 11.6482 12.145 11.9236 12.5236C12.1991 12.9022 12.3351 13.3644 12.3084 13.8319C12.2783 14.2803 12.1062 14.7075 11.8171 15.0516C11.5279 15.3957 11.1367 15.6387 10.7002 15.7456C10.5536 15.7786 10.3637 15.8364 10.2873 15.6981C10.1717 15.5123 10.3554 15.3864 10.4813 15.2852C11.1709 14.7031 11.2885 13.9454 11.1585 13.1134C11.0346 12.3372 10.4813 12.0234 9.74433 12.3062C9.21532 12.5258 8.74871 12.8725 8.38592 13.3157C7.1667 14.6629 6.40441 16.3609 6.20791 18.1672C6.10855 18.947 6.24745 19.7387 6.60635 20.4381C7.13073 21.4394 8.02051 21.8832 9.1188 21.6231C9.98787 21.4059 10.7854 20.9662 11.4331 20.3473C11.5238 20.2524 11.5947 20.1403 11.6415 20.0177C11.6883 19.895 11.7101 19.7642 11.7056 19.633C11.8563 18.064 13.2126 16.8873 14.7279 17.0029C15.0935 17.0142 15.4416 17.1614 15.7044 17.4158C15.8293 17.5326 15.9149 17.6853 15.9493 17.8528C15.9837 18.0203 15.9652 18.1944 15.8964 18.351C15.7498 18.706 15.4236 18.8216 15.0541 18.8031C14.9768 18.8115 14.8987 18.8006 14.8266 18.7714C14.7546 18.7422 14.6909 18.6956 14.6412 18.6358C14.505 18.4294 14.7651 18.4149 14.8477 18.3117C15.0789 18.0227 14.9488 17.6779 14.5524 17.5974C14.3563 17.5534 14.152 17.5623 13.9605 17.6232C13.7689 17.6842 13.597 17.795 13.4624 17.9443C13.1817 18.2293 12.9725 18.5767 12.852 18.9582C12.7314 19.3396 12.7029 19.7442 12.7688 20.1388C12.81 20.4443 12.9401 20.7437 13.2766 20.8345C13.6131 20.9253 13.832 20.6735 14.0384 20.4381C14.1912 20.2429 14.3016 20.0179 14.3625 19.7775C14.4119 19.5516 14.5346 19.3484 14.7114 19.1994C14.9179 19.0405 15.1449 18.9104 15.3886 19.0529C15.6322 19.1953 15.4835 19.4348 15.4835 19.633C15.4835 19.9963 15.0913 20.4195 15.5764 20.6982C15.8365 20.8469 16.8853 20.0562 16.9679 19.6846C17.0979 19.0921 17.2032 18.4934 17.3209 17.8988C17.3354 17.6893 17.4147 17.4894 17.548 17.327C17.6483 17.2126 17.781 17.1316 17.9286 17.0947C18.0762 17.0578 18.2315 17.0668 18.3738 17.1205C18.6855 17.2506 18.5307 17.5334 18.4997 17.7729C18.4832 17.9154 18.4584 18.0599 18.4192 18.3035ZM25.3929 16.9285C25.3392 16.784 25.2525 16.6436 25.075 16.6622C24.8974 16.6808 24.8458 16.8439 24.8314 16.9967C24.8086 17.2229 24.8396 17.4513 24.9218 17.6633C25.0039 17.8753 25.1349 18.0649 25.3041 18.2168C25.4991 17.815 25.5309 17.3533 25.3929 16.9285Z" fill="#9F9FAD"/>
</g>
<defs>
<clipPath id="clip0_331_36">
<rect width="36" height="36" fill="white"/>
</clipPath>
</defs>
</svg>
