<svg width="36" height="36" fill="none" xmlns="http://www.w3.org/2000/svg"><g clip-path="url(#a)"><path d="M7.922 29.301 5.66 3.935h24.685L28.08 29.297l-10.094 2.799L7.922 29.3z" stroke="#9F9FAD" stroke-width=".75"/><path d="m10.571 15.344.287 3.193h7.145v-3.193H10.57zM18.002 8.881H9.996l.29 3.193h7.716V8.881zM18.003 26.958v-3.322l-.015.004-3.556-.96-.227-2.547H11l.447 5.014 6.54 1.815.016-.004z" fill="#9F9FAD"/><path d="m21.923 18.537-.37 4.14-3.562.962v3.322l6.546-1.814.048-.54.75-8.406.078-.857.576-6.463h-7.998v3.193h4.5l-.291 3.27H17.99v3.193h3.932z" fill="#9F9FAD"/></g><defs><clipPath id="a"><path fill="#fff" transform="translate(5.25)" d="M0 0h25.505v36H0z"/></clipPath></defs></svg>