<svg width="36" height="36" fill="none" xmlns="http://www.w3.org/2000/svg"><g clip-path="url(#a)" fill="#9F9FAD"><path d="M11.625 36a5.627 5.627 0 0 0 5.625-5.625V24.75h-5.625A5.627 5.627 0 0 0 6 30.375 5.627 5.627 0 0 0 11.625 36zM6 18.375a5.627 5.627 0 0 1 5.625-5.625h5.625V24h-5.625A5.627 5.627 0 0 1 6 18.375zM6 6c0-3.312 2.52-6 5.625-6h5.625v12h-5.625C8.52 12 6 9.312 6 6zM18.002 0h6c3.312 0 6 2.688 6 6s-2.688 6-6 6h-6V0zM29.25 18.375A5.627 5.627 0 0 1 23.625 24 5.627 5.627 0 0 1 18 18.375a5.627 5.627 0 0 1 5.625-5.625 5.627 5.627 0 0 1 5.625 5.625z"/></g><defs><clipPath id="a"><path fill="#fff" transform="translate(6)" d="M0 0h24.005v36H0z"/></clipPath></defs></svg>