<svg width="36" height="36" fill="none" xmlns="http://www.w3.org/2000/svg"><g clip-path="url(#a)"><mask id="b" fill="#fff"><path d="M7.594 29.56 5.274 3.515h25.509l-2.32 26.03-10.456 2.896"/></mask><path d="M5.273 3.516v-.75h-.82l.073.816.747-.066zm25.51 0 .747.066.073-.816h-.82v.75zm-2.32 26.03.2.722.5-.139.046-.517-.747-.067zM8.34 29.492 6.02 3.449l-1.495.133 2.32 26.044 1.495-.133zM5.273 4.266h25.51v-1.5H5.273v1.5zm24.763-.817-2.32 26.03 1.493.133 2.32-26.03-1.493-.133zm-1.774 25.373L17.807 31.72l.4 1.446 10.456-2.897-.4-1.445z" fill="#9F9FAD" mask="url(#b)"/><path d="M10.013 8.838h8.015v3.192h-4.514l.296 3.27h4.218v3.185h-7.143m.14 1.603h3.206l.225 2.552 3.572.956v3.333l-6.553-1.828" fill="#9F9FAD"/><path d="M26.015 8.838h-8.001v3.192h7.706m-.288 3.27h-7.418v3.192h3.937l-.373 4.148-3.564.956v3.32l6.539-1.815" fill="#9F9FAD"/><path stroke="#9F9FAD" stroke-width=".75" d="M7.697 29.193 18.1 32.081"/></g><defs><clipPath id="a"><path fill="#fff" d="M0 0h36v36H0z"/></clipPath></defs></svg>