<svg width="36" height="36" fill="none" xmlns="http://www.w3.org/2000/svg"><g clip-path="url(#a)"><g clip-path="url(#b)"><path d="M.375.375h35.25v35.25H.375V.375z" stroke="#9F9FAD" stroke-width=".75"/><path d="M24.183 28.125c.725 1.184 1.669 2.055 3.337 2.055 1.402 0 2.297-.7 2.297-1.669 0-1.16-.92-1.57-2.463-2.245l-.845-.363c-2.441-1.04-4.063-2.343-4.063-5.098 0-2.537 1.933-4.468 4.954-4.468 2.151 0 3.697.748 4.812 2.709l-2.635 1.69c-.58-1.04-1.205-1.449-2.177-1.449-.99 0-1.619.629-1.619 1.45 0 1.015.629 1.426 2.08 2.054l.846.363c2.874 1.232 4.497 2.489 4.497 5.314 0 3.046-2.392 4.714-5.606 4.714-3.141 0-5.171-1.497-6.164-3.46l2.749-1.597zm-11.95.294c.531.942 1.015 1.74 2.177 1.74 1.111 0 1.812-.435 1.812-2.126V16.53h3.383V28.08c0 3.502-2.053 5.097-5.051 5.097-2.709 0-4.277-1.402-5.075-3.09l2.754-1.667z" fill="#9F9FAD"/></g></g><defs><clipPath id="a"><path fill="#fff" d="M0 0h36v36H0z"/></clipPath><clipPath id="b"><path fill="#fff" d="M0 0h36v36H0z"/></clipPath></defs></svg>