<svg width="36" height="36" fill="none" xmlns="http://www.w3.org/2000/svg"><g clip-path="url(#a)"><g clip-path="url(#b)"><path d="M6.375 1.125h23.25c3.318 0 6 2.682 6 6v22.35c0 3.318-2.682 6-6 6H6.375c-3.318 0-6-2.682-6-6V7.125c0-3.318 2.682-6 6-6z" stroke="#9F9FAD" stroke-width=".75"/><path d="M8.1 25.365V9.93c0-.105.046-.165.15-.165.256 0 .496 0 .84-.015.36-.015.736-.015 1.14-.03.406-.015.84-.015 1.306-.03.465-.015.915-.015 1.365-.015 1.23 0 2.25.15 3.09.465.75.255 1.44.675 2.01 1.23.48.48.855 1.065 1.095 1.71.225.63.345 1.275.345 1.95 0 1.29-.3 2.355-.9 3.195-.6.84-1.44 1.47-2.415 1.83-1.02.375-2.145.51-3.375.51-.36 0-.6 0-.75-.015-.15-.015-.36-.015-.645-.015v4.815c.015.105-.06.195-.165.21H8.28c-.12 0-.18-.06-.18-.195zm3.27-12.705v5.04c.21.015.406.03.586.03h.795c.585 0 1.17-.09 1.725-.27.48-.135.9-.42 1.23-.795.315-.375.465-.885.465-1.545a2.469 2.469 0 0 0-.345-1.335 2.175 2.175 0 0 0-1.05-.855 4.402 4.402 0 0 0-1.77-.3c-.39 0-.735 0-1.02.015-.3-.015-.51 0-.615.015zM28.8 16.785c-.45-.24-.93-.404-1.44-.51a7.907 7.907 0 0 0-1.68-.194 3.02 3.02 0 0 0-.9.105.77.77 0 0 0-.464.3.795.795 0 0 0-.12.404c0 .136.06.27.15.39.135.165.315.3.51.405.345.18.705.346 1.065.495.81.27 1.59.646 2.31 1.096.495.314.9.735 1.185 1.244.24.48.36 1.006.345 1.546a3.49 3.49 0 0 1-.585 1.995 3.759 3.759 0 0 1-1.68 1.334c-.735.316-1.635.48-2.715.48-.69 0-1.365-.06-2.04-.195a6.05 6.05 0 0 1-1.53-.48c-.105-.06-.18-.165-.165-.284v-2.61c0-.046.015-.105.06-.136.045-.03.09-.015.135.015.585.346 1.2.585 1.86.736.57.15 1.17.224 1.77.224.57 0 .975-.075 1.245-.21a.697.697 0 0 0 .405-.63c0-.21-.12-.404-.36-.6-.24-.194-.735-.42-1.47-.704a9.178 9.178 0 0 1-2.13-1.08 3.884 3.884 0 0 1-1.14-1.276 3.219 3.219 0 0 1-.345-1.53c0-.644.18-1.26.51-1.814.375-.6.93-1.08 1.575-1.38.705-.36 1.59-.525 2.655-.525.615 0 1.245.044 1.86.134.45.06.885.18 1.29.346.06.014.12.075.15.135.015.06.03.12.03.18v2.444c0 .06-.03.12-.075.15-.135.03-.21.03-.27 0z" fill="#9F9FAD"/></g></g><defs><clipPath id="a"><path fill="#fff" d="M0 0h36v36H0z"/></clipPath><clipPath id="b"><path fill="#fff" transform="translate(0 .75)" d="M0 0h36v35.1H0z"/></clipPath></defs></svg>