<svg width="36" height="36" fill="none" xmlns="http://www.w3.org/2000/svg"><g clip-path="url(#a)"><g clip-path="url(#b)"><path d="M18 21.474a3.209 3.209 0 1 0 0-6.418 3.209 3.209 0 0 0 0 6.418z" fill="#9F9FAD"/><path d="M18 24.839c9.509 0 17.218-2.944 17.218-6.574S27.509 11.69 18 11.69.783 14.634.783 18.265c0 3.63 7.708 6.574 17.217 6.574z" stroke="#9F9FAD" stroke-width="1.565"/><path d="M12.306 21.552c4.755 8.235 11.158 13.44 14.302 11.624 3.145-1.816 1.84-9.963-2.915-18.198C18.938 6.743 12.535 1.54 9.39 3.354c-3.144 1.816-1.84 9.963 2.915 18.198z" stroke="#9F9FAD" stroke-width="1.565"/><path d="M12.307 14.978c-4.755 8.235-6.06 16.383-2.916 18.198 3.144 1.815 9.548-3.389 14.302-11.624 4.755-8.235 6.06-16.382 2.916-18.197-3.145-1.816-9.548 3.388-14.302 11.623z" stroke="#9F9FAD" stroke-width="1.565"/></g></g><defs><clipPath id="a"><path fill="#fff" d="M0 0h36v36H0z"/></clipPath><clipPath id="b"><path fill="#fff" transform="translate(0 2.25)" d="M0 0h36v32.03H0z"/></clipPath></defs></svg>