<svg width="36" height="36" fill="none" xmlns="http://www.w3.org/2000/svg"><g clip-path="url(#a)" fill="#9F9FAD"><path d="M17.622 8.154c-5.814.185-7.542 4.338-7.938 6.588.516-.834 2.142-2.664 4.536-2.664 2.79 0 4.914 3.114 6.21 4.086 1.575 1.18 4.739 2.74 8.892 1.476 3.312-1.008 4.848-4.524 5.184-6.192-1.602 2.178-4.032 3.486-7.038 1.944-2.07-1.062-3.618-5.436-9.846-5.238zM9.396 18.036c-5.814.185-7.542 4.338-7.938 6.588.516-.834 2.142-2.664 4.536-2.664 2.79 0 4.914 3.114 6.21 4.086 1.574 1.18 4.738 2.74 8.892 1.476 3.312-1.008 4.848-4.524 5.184-6.192-1.602 2.178-4.032 3.486-7.038 1.944-2.07-1.062-3.618-5.436-9.846-5.238z"/></g><defs><clipPath id="a"><path fill="#fff" d="M0 0h36v36H0z"/></clipPath></defs></svg>