<svg width="36" height="36" fill="none" xmlns="http://www.w3.org/2000/svg"><path d="M28.42 21.27a2.438 2.438 0 0 1-.96.202c-.51 0-.971-.089-1.379-.267a2.942 2.942 0 0 1-1.031-.736 3.257 3.257 0 0 1-.646-1.104 4.093 4.093 0 0 1-.223-1.367c0-.502.075-.965.223-1.395.15-.431.362-.805.642-1.122.28-.32.624-.57 1.032-.75a3.347 3.347 0 0 1 1.379-.275c.343 0 .673.053.992.157.32.103.61.256.869.455.258.2.471.449.638.744.166.296.27.634.308 1.015h-1.397c-.088-.374-.255-.655-.503-.844-.248-.189-.55-.281-.907-.281-.33 0-.61.064-.84.192-.231.128-.419.3-.56.516a2.286 2.286 0 0 0-.313.737c-.063.274-.099.56-.099.855 0 .28.032.555.1.822.063.267.17.505.311.719.142.214.33.384.56.513.23.128.51.192.84.192.486 0 .862-.125 1.128-.37.266-.246.418-.602.464-1.072h-1.474V17.7h2.796v3.62h-.932l-.149-.758c-.259.338-.55.573-.868.709zM32.75 14.623v5.45H36v1.243h-4.715v-6.692h1.464z" fill="#9F9FAD"/><path d="M25.83 22.15c-2.237 1.366-5.59 2.142-9.33 2.142-6.74 0-12.198-2.816-12.198-6.294 0-3.474 5.462-6.293 12.198-6.293 3.754 0 7.118.793 9.355 2.168-2.44-2.304-6.82-3.92-11.826-3.923C6.358 9.95.14 13.552.14 17.998c0 4.447 6.218 8.053 13.885 8.053 4.988 0 9.355-1.613 11.805-3.902z" fill="#9F9FAD"/><path d="M7.854 19.69 6.56 14.1h-1.22l1.915 7.287h1.146l1.612-5.724 1.592 5.724h1.15l1.982-7.286h-1.292l-1.292 5.588-1.56-5.588H9.414l-1.56 5.588zM17.963 17.17a1.782 1.782 0 0 0-.666-.577 2.065 2.065 0 0 0-.932-.203c-.392 0-.744.07-1.05.21a1.969 1.969 0 0 0-.734.58c-.366.466-.558 1.125-.558 1.904 0 .346.05.673.145.965.097.296.243.556.428.773.391.455.95.697 1.616.697.349 0 .633-.035.872-.11.206-.064.345-.15.46-.224a2.044 2.044 0 0 0 .665-.734c.135-.249.203-.484.217-.605l.01-.082h-.95l-.003.068c-.025.31-.431.861-1.154.861-1.032 0-1.278-.747-1.296-1.406h3.46v-.074a4.73 4.73 0 0 0-.128-1.15 2.757 2.757 0 0 0-.402-.894zm-1.709.074c.766 0 1.175.413 1.25 1.26h-2.478c.04-.687.584-1.26 1.229-1.26zM23.275 17.867a2.342 2.342 0 0 0-.402-.773 1.886 1.886 0 0 0-.655-.52 2.039 2.039 0 0 0-.88-.188 1.723 1.723 0 0 0-.797.192c-.196.1-.37.242-.52.42v-2.235h-.947v6.62h.9v-.451c.08.103.182.213.318.31.256.185.573.277.94.277.395 0 .75-.089 1.05-.263.267-.157.494-.381.672-.666.157-.25.274-.545.353-.876.068-.284.103-.598.103-.904a3.028 3.028 0 0 0-.135-.943zm-.851 1.075c0 .52-.103.954-.303 1.26-.21.324-.516.488-.907.488-.566 0-1.229-.395-1.229-1.513 0-.534.068-.947.203-1.26.196-.452.527-.67 1.008-.67.512 0 .858.2 1.05.616.157.342.178.759.178 1.079z" fill="#9F9FAD"/></svg>