<svg width="36" height="36" viewBox="0 0 36 36" fill="none" xmlns="http://www.w3.org/2000/svg">
<path d="M2.54845 17.928C2.54845 24.0159 6.08624 29.2769 11.2166 31.7701L3.88004 11.6688C3.00057 13.6382 2.54681 15.7711 2.54845 17.928ZM28.3115 17.1518C28.3115 15.2512 27.6287 13.9348 27.0432 12.9103C26.2635 11.6434 25.5327 10.5705 25.5327 9.30358C25.5327 7.88973 26.605 6.5736 28.1155 6.5736C28.1837 6.5736 28.2482 6.58204 28.3147 6.58597C25.5784 4.07901 21.9328 2.54845 17.9287 2.54845C12.5555 2.54845 7.82828 5.30528 5.07819 9.48089C5.439 9.49172 5.779 9.49917 6.06796 9.49917C7.67656 9.49917 10.1668 9.30414 10.1668 9.30414C10.996 9.25521 11.0937 10.4729 10.2655 10.5711C10.2655 10.5711 9.43224 10.6691 8.50504 10.7176L14.1062 27.3771L17.472 17.2826L15.0757 10.7171C14.2475 10.6686 13.4629 10.5706 13.4629 10.5706C12.6341 10.522 12.7313 9.25478 13.56 9.30372C13.56 9.30372 16.1 9.49889 17.6112 9.49889C19.2198 9.49889 21.7102 9.30372 21.7102 9.30372C22.5398 9.25478 22.6374 10.4725 21.8089 10.5706C21.8089 10.5706 20.9739 10.6686 20.0484 10.7171L25.6067 27.2504L27.1407 22.124C27.8056 19.9967 28.3116 18.4688 28.3116 17.152L28.3115 17.1518ZM18.1985 19.2734L13.5839 32.6825C14.9948 33.0981 16.4579 33.3091 17.9287 33.3091C19.7197 33.3091 21.4372 32.9995 23.0361 32.4373C22.9935 32.37 22.9568 32.2991 22.9266 32.2254L18.1985 19.2734ZM31.4242 10.5491C31.4903 11.039 31.5278 11.5649 31.5278 12.1306C31.5278 13.6914 31.2363 15.4458 30.3584 17.6395L25.6604 31.2226C30.2328 28.5561 33.3083 23.6024 33.3083 17.9284C33.3085 15.2544 32.6256 12.7398 31.4242 10.5491ZM17.9287 0C8.04299 0 0 8.04243 0 17.928C0 27.8148 8.04299 35.857 17.9287 35.857C27.814 35.857 35.8581 27.8148 35.8581 17.928C35.858 8.04243 27.814 0 17.9287 0ZM17.9287 35.0352C8.49647 35.0352 0.822016 27.3609 0.822016 17.928C0.822016 8.49576 8.49604 0.822016 17.9287 0.822016C27.3607 0.822016 35.0344 8.49576 35.0344 17.928C35.0344 27.3609 27.3607 35.0352 17.9287 35.0352Z" fill="#9F9FAD"/>
</svg>
