<svg width="36" height="36" fill="none" xmlns="http://www.w3.org/2000/svg"><g clip-path="url(#a)"><g clip-path="url(#b)"><path d="M6.375 1.125h23.25c3.318 0 6 2.682 6 6v22.35c0 3.318-2.682 6-6 6H6.375c-3.318 0-6-2.682-6-6V7.125c0-3.318 2.682-6 6-6z" stroke="#9F9FAD" stroke-width=".75"/><path d="m18.93 9.976-4.5 7.425 4.8 7.875c.03.06.045.12.03.18s-.075.015-.165.03H15.66c-.24 0-.405-.015-.51-.165-.315-.63-.645-1.245-.96-1.875a60.632 60.632 0 0 0-1.02-1.89c-.36-.645-.72-1.29-1.08-1.95h-.03c-.315.645-.66 1.29-1.005 1.935-.345.645-.69 1.29-1.02 1.92-.345.63-.69 1.275-1.035 1.89-.06.15-.18.165-.345.165h-3.3c-.06 0-.105.03-.105-.045-.015-.06 0-.12.03-.165l4.665-7.65L5.4 9.961c-.045-.06-.06-.12-.03-.15.03-.045.09-.06.15-.06h3.405c.075 0 .15.015.21.03.06.03.105.075.15.135.285.645.615 1.29.96 1.935.36.645.705 1.275 1.08 1.905.36.63.69 1.26 1.005 1.905h.03c.315-.66.645-1.305.975-1.935.33-.63.675-1.26 1.02-1.89.345-.63.675-1.275 1.005-1.89.015-.06.045-.12.09-.15.06-.03.12-.045.195-.03h3.165c.075-.015.15.03.165.105.015.015-.015.075-.045.105zM25.86 25.8a7.457 7.457 0 0 1-3.224-.674 5.23 5.23 0 0 1-2.265-2.04c-.555-.915-.825-2.055-.825-3.42a6.16 6.16 0 0 1 .825-3.165 6.23 6.23 0 0 1 2.385-2.325c1.05-.585 2.31-.87 3.794-.87.075 0 .18 0 .316.015.134.015.285.015.465.03V8.61c0-.105.044-.165.15-.165h3.044c.076-.015.136.045.15.105V22.86c0 .27.015.57.03.9.03.315.046.615.06.87 0 .105-.044.195-.15.24-.78.33-1.604.57-2.444.72-.765.135-1.53.21-2.31.21zm1.47-3v-6.6c-.134-.03-.27-.06-.404-.074-.165-.015-.33-.03-.495-.03-.585 0-1.17.12-1.696.39-.51.255-.944.63-1.274 1.11-.33.48-.495 1.125-.495 1.905a4.18 4.18 0 0 0 .255 1.545c.15.405.375.765.674 1.065.285.27.63.48 1.02.6.405.135.826.195 1.245.195.226 0 .436-.015.63-.03.195.015.36-.015.54-.075z" fill="#9F9FAD"/></g></g><defs><clipPath id="a"><path fill="#fff" d="M0 0h36v36H0z"/></clipPath><clipPath id="b"><path fill="#fff" transform="translate(0 .75)" d="M0 0h36v35.1H0z"/></clipPath></defs></svg>